<?xml version="1.0" standalone="no"?><!DOCTYPE svg PUBLIC "-//W3C//DTD SVG 1.1//EN" "http://www.w3.org/Graphics/SVG/1.1/DTD/svg11.dtd"><svg width="100%" height="100%" viewBox="0 0 23 23" version="1.1" xmlns="http://www.w3.org/2000/svg" xmlns:xlink="http://www.w3.org/1999/xlink" xml:space="preserve" style="fill-rule:evenodd;clip-rule:evenodd;stroke-linejoin:round;stroke-miterlimit:1.41421;"><g id="Layer2"><g><circle cx="11.04" cy="11.04" r="11.04" style="fill:#ff5722;"/><path d="M6.565,14.838c-0.049,0 -0.098,-0.001 -0.147,-0.003c-0.108,-0.004 -0.217,-0.013 -0.324,-0.026c-0.262,-0.032 -0.52,-0.092 -0.769,-0.178c-0.247,-0.086 -0.485,-0.197 -0.71,-0.331c-0.228,-0.137 -0.442,-0.298 -0.637,-0.48c-0.203,-0.189 -0.385,-0.4 -0.543,-0.628c-0.163,-0.237 -0.299,-0.492 -0.404,-0.76c-0.091,-0.229 -0.159,-0.466 -0.203,-0.709c-0.025,-0.137 -0.042,-0.275 -0.052,-0.414l-0.388,0c-0.028,-0.004 -0.057,-0.004 -0.084,-0.013c-0.026,-0.009 -0.052,-0.022 -0.075,-0.038c-0.046,-0.034 -0.08,-0.081 -0.098,-0.135c-0.008,-0.026 -0.008,-0.055 -0.013,-0.083l0,-1.32c0.005,-0.027 0.005,-0.056 0.013,-0.083c0.018,-0.054 0.052,-0.101 0.098,-0.134c0.023,-0.017 0.049,-0.03 0.075,-0.039c0.027,-0.008 0.056,-0.009 0.084,-0.013l0.727,0c0.006,-0.013 0.012,-0.027 0.019,-0.041c0.005,-0.01 0.01,-0.021 0.015,-0.031c0.023,-0.047 0.047,-0.094 0.072,-0.14c0.05,-0.092 0.103,-0.182 0.16,-0.27c0.174,-0.266 0.381,-0.511 0.615,-0.726c0.162,-0.149 0.337,-0.283 0.522,-0.402c0.181,-0.116 0.373,-0.217 0.571,-0.301c0.341,-0.144 0.703,-0.238 1.071,-0.277c0.374,-0.039 0.753,-0.024 1.123,0.047c0.362,0.069 0.714,0.192 1.041,0.364c0.36,0.188 0.689,0.435 0.972,0.727c0.162,0.168 0.309,0.351 0.438,0.546c0.07,0.106 0.135,0.216 0.195,0.329c0.018,-0.003 0.036,-0.005 0.055,-0.007c0.111,-0.015 0.223,-0.026 0.336,-0.035c0.227,-0.017 0.455,-0.023 0.682,-0.018c0.247,0.005 0.493,0.023 0.738,0.052c0.125,0.015 0.249,0.033 0.374,0.053l0.003,0.001c0.007,-0.013 0.013,-0.026 0.02,-0.038c0.008,-0.015 0.016,-0.03 0.024,-0.045c0.019,-0.035 0.038,-0.07 0.058,-0.104c0.04,-0.069 0.082,-0.136 0.126,-0.202c0.135,-0.201 0.289,-0.39 0.459,-0.562c0.298,-0.302 0.646,-0.553 1.026,-0.74c0.331,-0.163 0.687,-0.278 1.051,-0.338c0.364,-0.06 0.736,-0.067 1.102,-0.021c0.366,0.046 0.725,0.146 1.062,0.296c0.398,0.176 0.764,0.422 1.079,0.723c0.235,0.223 0.441,0.476 0.611,0.752c0.052,0.084 0.101,0.17 0.147,0.258c0.024,0.046 0.047,0.094 0.069,0.141l0.004,0.009l0.737,0l0.084,0.013c0.025,0.013 0.052,0.022 0.075,0.039c0.046,0.033 0.08,0.08 0.098,0.134c0.008,0.027 0.008,0.056 0.013,0.083l0,1.32c-0.005,0.028 -0.005,0.057 -0.013,0.083c-0.009,0.027 -0.022,0.053 -0.039,0.075c-0.033,0.046 -0.08,0.081 -0.134,0.098c-0.027,0.009 -0.056,0.009 -0.084,0.013l-0.398,0c-0.001,0.016 -0.003,0.031 -0.004,0.047c-0.001,0.016 -0.003,0.032 -0.004,0.048c-0.006,0.063 -0.014,0.127 -0.023,0.19c-0.018,0.125 -0.043,0.249 -0.074,0.372c-0.073,0.293 -0.182,0.577 -0.323,0.844c-0.187,0.353 -0.43,0.677 -0.716,0.955c-0.282,0.274 -0.606,0.503 -0.957,0.678c-0.332,0.165 -0.687,0.28 -1.051,0.342c-0.397,0.067 -0.805,0.071 -1.203,0.011c-0.187,-0.028 -0.371,-0.07 -0.552,-0.125c-0.184,-0.057 -0.365,-0.128 -0.539,-0.213c-0.401,-0.195 -0.766,-0.461 -1.076,-0.782c-0.15,-0.156 -0.288,-0.324 -0.409,-0.503c-0.14,-0.206 -0.26,-0.426 -0.357,-0.655c-0.131,-0.31 -0.221,-0.637 -0.265,-0.971c-0.016,-0.12 -0.027,-0.24 -0.031,-0.36c-0.003,-0.07 -0.004,-0.139 -0.003,-0.208l0.001,-0.008c-0.081,-0.009 -0.161,-0.017 -0.242,-0.024c-0.142,-0.011 -0.285,-0.018 -0.428,-0.02c-0.143,-0.002 -0.287,0.001 -0.431,0.008c-0.077,0.005 -0.154,0.01 -0.231,0.017l-0.014,0.001c0,0.014 0.001,0.029 0.001,0.043c0,0.019 0,0.037 0,0.056c0,0.049 -0.001,0.098 -0.003,0.147c-0.005,0.112 -0.014,0.224 -0.029,0.336c-0.034,0.257 -0.094,0.511 -0.179,0.756c-0.103,0.293 -0.242,0.574 -0.413,0.834c-0.167,0.254 -0.365,0.488 -0.587,0.695c-0.195,0.182 -0.409,0.343 -0.638,0.48c-0.224,0.134 -0.462,0.245 -0.709,0.331c-0.246,0.085 -0.5,0.144 -0.757,0.177c-0.1,0.012 -0.2,0.021 -0.3,0.026c-0.053,0.002 -0.106,0.004 -0.159,0.004c-0.008,0 -0.016,0 -0.024,0ZM15.08,14.543c0.267,0.033 0.539,0.034 0.807,0.005c-0.126,0.014 -0.253,0.021 -0.382,0.021c-0.144,0 -0.286,-0.009 -0.425,-0.026ZM6.698,14.566l-0.011,0.001l0.007,-0.001l0.004,0ZM6.72,14.565l-0.014,0.001l0.007,0l0.007,-0.001ZM6.742,14.564l-0.015,0.001l0.004,0l0.011,-0.001ZM6.768,14.563l-0.02,0.001c0.006,0 0.013,-0.001 0.02,-0.001ZM6.789,14.562l-0.016,0.001l0.012,-0.001l0.004,0ZM6.81,14.56l-0.014,0.001l0.008,0l0.006,-0.001ZM6.831,14.559l-0.014,0.001l0.005,0l0.009,-0.001ZM6.858,14.557l-0.02,0.001c0.007,0 0.014,-0.001 0.02,-0.001ZM6.879,14.555l-0.017,0.001l0.014,-0.001l0.003,0ZM6.899,14.553l-0.013,0.001l0.008,0l0.005,-0.001ZM6.921,14.551l-0.014,0.001l0.006,0l0.008,-0.001ZM6.944,14.549l-0.016,0.001l0.003,0l0.013,-0.001ZM6.969,14.546l-0.021,0.002c0.007,-0.001 0.014,-0.001 0.021,-0.002ZM15.909,14.546l-0.02,0.002l0.007,-0.001l0.013,-0.001ZM15.91,14.546c0.015,-0.002 0.029,-0.004 0.043,-0.005l-0.021,0.002l-0.022,0.003ZM6.989,14.543l-0.014,0.002l0.01,-0.001l0.004,-0.001ZM6.149,14.544l-0.004,0l0.002,0l0.002,0ZM15.075,14.543l-0.016,-0.002l0.008,0.001l0.008,0.001ZM7.008,14.541l-0.012,0.002l0.007,-0.001l0.005,-0.001ZM6.124,14.541l-0.005,0l0.001,0l0.004,0ZM15.054,14.54l-0.018,-0.002l0.013,0.002l0.005,0ZM15.973,14.538l-0.016,0.002l0.011,-0.001l0.005,-0.001ZM7.031,14.538l-0.01,0.002l0.005,-0.001l0.005,-0.001ZM15.033,14.537l-0.021,-0.002c0.007,0.001 0.014,0.002 0.021,0.002ZM15.994,14.535l-0.015,0.002l0.007,-0.001l0.008,-0.001ZM7.053,14.535l-0.009,0.002l0.005,-0.001l0.004,-0.001ZM6.071,14.534l-0.003,0l0.003,0ZM16.018,14.532l-0.018,0.002l0.003,0l0.015,-0.002ZM15.009,14.534l-0.017,-0.002l0.004,0l0.013,0.002ZM7.075,14.532l-0.008,0.001l0.005,0l0.003,-0.001ZM16.041,14.528l-0.02,0.003c0.006,-0.001 0.013,-0.002 0.02,-0.003ZM6.049,14.531l-0.003,0l0.003,0ZM14.986,14.531l-0.014,-0.002l0.006,0.001l0.008,0.001ZM7.097,14.529l-0.006,0.001l0.004,-0.001l0.002,0ZM6.027,14.528l-0.002,0l0.002,0ZM14.965,14.528l-0.014,-0.003l0.009,0.002l0.005,0.001ZM16.061,14.525l-0.015,0.002l0.011,-0.001l0.004,-0.001ZM7.119,14.525l-0.004,0.001l0.003,0l0.001,-0.001ZM14.944,14.524l-0.02,-0.003l0.018,0.003l0.002,0ZM16.083,14.522l-0.015,0.002l0.007,-0.001l0.008,-0.001ZM7.141,14.522l0,0l0,0l0,0ZM14.924,14.521l-0.019,-0.003l0.002,0l0.017,0.003ZM16.106,14.518l-0.018,0.003c0.006,-0.001 0.012,-0.002 0.018,-0.003ZM16.125,14.514l-0.014,0.003l0.01,-0.002l0.004,-0.001ZM14.898,14.517l-0.013,-0.003l0.006,0.001l0.007,0.002ZM14.878,14.513l-0.015,-0.003l0.011,0.002l0.004,0.001ZM16.145,14.511l-0.012,0.002l0.003,-0.001l0.009,-0.001ZM14.858,14.509l-0.019,-0.003c0.006,0.001 0.013,0.002 0.019,0.003ZM16.168,14.507l-0.009,0.001l0.007,-0.001l0.002,0ZM14.832,14.505l-0.012,-0.003l0.003,0.001l0.009,0.002ZM16.184,14.503l-0.005,0.001l0.002,0l0.003,-0.001ZM14.811,14.5l-0.011,-0.002l0.007,0.002l0.004,0ZM14.791,14.496l-0.012,-0.002l0.011,0.002l0.001,0ZM14.765,14.491l-0.01,-0.002l0.001,0l0.009,0.002ZM14.744,14.486l-0.008,-0.001l0.004,0l0.004,0.001ZM14.725,14.482l-0.008,-0.002l0.006,0.002l0.002,0ZM14.678,14.471l-0.007,-0.002l0.002,0.001l0.005,0.001ZM14.66,14.467l-0.007,-0.002l0.004,0.001l0.003,0.001ZM14.641,14.462l-0.006,-0.001l0.005,0.001l0.001,0ZM14.613,14.455l-0.007,-0.002l0.001,0l0.006,0.002ZM14.595,14.45l-0.008,-0.002l0.004,0.001l0.004,0.001ZM14.577,14.445l-0.009,-0.002l0.006,0.001l0.003,0.001ZM14.558,14.44l-0.015,-0.004l0.015,0.004l0,0ZM14.532,14.433l-0.01,-0.003l0.003,0.001l0.007,0.002ZM5.586,14.431l0,0l0,0ZM14.513,14.427l-0.01,-0.003l0.005,0.002l0.005,0.001ZM5.565,14.425l-0.001,0l0.001,0ZM14.495,14.422l-0.013,-0.004l0.01,0.003l0.003,0.001ZM5.544,14.419l-0.002,-0.001l0.001,0l0.001,0.001ZM14.476,14.416l-0.018,-0.005c0.006,0.001 0.012,0.003 0.018,0.005ZM5.523,14.412l-0.002,-0.001l0,0.001l0.002,0ZM14.452,14.409l-0.013,-0.004l0.004,0.001l0.009,0.003ZM5.503,14.406l-0.004,-0.001l0.001,0l0.003,0.001ZM7.642,14.401l-0.004,0.002l0.001,-0.001l0.003,-0.001ZM14.432,14.402l-0.013,-0.004l0.008,0.003l0.005,0.001ZM5.482,14.399l-0.005,-0.001l0.001,0l0.004,0.001ZM14.413,14.396l-0.019,-0.006l0.016,0.005l0.003,0.001ZM7.666,14.393l-0.007,0.003l0.002,-0.001l0.005,-0.002ZM5.461,14.392l-0.005,-0.001l0.001,0l0.004,0.001ZM14.394,14.39l-0.019,-0.006l0.002,0l0.017,0.006ZM7.688,14.386l-0.008,0.003l0.003,-0.001l0.005,-0.002ZM5.441,14.386l-0.006,-0.002l0,0l0.006,0.002ZM14.369,14.382l-0.013,-0.005l0.005,0.002l0.008,0.003ZM7.71,14.378l-0.009,0.004l0.004,-0.002l0.005,-0.002ZM5.419,14.378l-0.005,-0.002l0,0.001l0.005,0.001ZM14.349,14.375l-0.012,-0.004l0.007,0.002l0.005,0.002ZM7.733,14.371l-0.011,0.003l0.005,-0.001l0.006,-0.002ZM14.33,14.368l-0.012,-0.004l0.009,0.003l0.003,0.001ZM7.752,14.364l-0.012,0.004l0.004,-0.001l0.008,-0.003ZM5.371,14.361l-0.006,-0.002l0.005,0.002l0.001,0ZM14.311,14.361l-0.018,-0.006c0.006,0.002 0.012,0.004 0.018,0.006ZM7.771,14.357l-0.011,0.004l0.001,-0.001l0.01,-0.003ZM5.35,14.354l-0.007,-0.003l0.005,0.002l0.002,0.001ZM7.796,14.348l-0.013,0.004l0.013,-0.004l0,0ZM14.286,14.352l-0.011,-0.004l0.002,0.001l0.009,0.003ZM5.328,14.346l-0.007,-0.003l0.005,0.002l0.002,0.001ZM14.266,14.345l-0.009,-0.004l0.003,0.002l0.006,0.002ZM7.814,14.341l-0.005,0.002l0.004,-0.002l0.001,0ZM14.247,14.338l-0.009,-0.004l0.005,0.002l0.004,0.002ZM5.306,14.337l-0.006,-0.002l0.004,0.001l0.002,0.001ZM7.831,14.334l-0.003,0.002l0.002,-0.001l0.001,-0.001ZM14.228,14.33l-0.007,-0.003l0.006,0.003l0.001,0ZM5.284,14.329l-0.005,-0.002l0.002,0.001l0.003,0.001ZM7.848,14.328l-0.001,0l0,0l0.001,0ZM5.262,14.32l-0.004,-0.002l0.001,0.001l0.003,0.001ZM14.182,14.312l-0.006,-0.003l0.001,0.001l0.005,0.002ZM5.239,14.311l-0.002,-0.001l0,0l0.002,0.001ZM14.165,14.305l-0.007,-0.003l0.003,0.001l0.004,0.002ZM14.147,14.297l-0.007,-0.002l0.004,0.001l0.003,0.001ZM14.129,14.29l-0.005,-0.002l0.004,0.002l0.001,0ZM14.097,14.276l-0.002,-0.001l0.002,0.001ZM14.084,14.27l-0.007,-0.002l0.002,0l0.005,0.002ZM16.933,14.268l-0.007,0.002l0.005,-0.002l0.002,0ZM16.951,14.259l-0.009,0.004l0.003,-0.001l0.006,-0.003ZM14.066,14.263l-0.007,-0.003l0.004,0.001l0.003,0.002ZM16.974,14.249l-0.016,0.007c0.006,-0.002 0.011,-0.005 0.016,-0.007ZM14.049,14.255l-0.008,-0.004l0.005,0.003l0.003,0.001ZM14.031,14.247l-0.008,-0.004l0.007,0.003l0.001,0.001ZM16.992,14.24l-0.012,0.006l0.007,-0.003l0.005,-0.003ZM17.015,14.23l-0.017,0.008l0.003,-0.002l0.014,-0.006ZM14.007,14.235l-0.01,-0.004l0.001,0l0.009,0.004ZM17.034,14.221l-0.019,0.009l0.018,-0.009l0.001,0ZM13.989,14.227l-0.01,-0.005l0.003,0.002l0.007,0.003ZM13.971,14.218l-0.01,-0.004l0.005,0.002l0.005,0.002ZM17.052,14.212l-0.012,0.006l0.011,-0.006l0.001,0ZM13.953,14.21l-0.01,-0.006l0.007,0.004l0.003,0.002ZM17.071,14.203l-0.011,0.005l0.009,-0.004l0.002,-0.001ZM13.936,14.201l-0.016,-0.008l0.014,0.007l0.002,0.001ZM17.089,14.194l-0.009,0.004l0.007,-0.003l0.002,-0.001ZM13.917,14.192l-0.016,-0.009l0.001,0.001l0.015,0.008ZM17.107,14.184l-0.008,0.005l0.006,-0.003l0.002,-0.002ZM13.895,14.18l-0.012,-0.006l0.003,0.002l0.009,0.004ZM17.125,14.175l-0.008,0.004l0.005,-0.002l0.003,-0.002ZM13.876,14.171l-0.01,-0.006l0.005,0.003l0.005,0.003ZM17.143,14.166l-0.007,0.003l0.004,-0.002l0.003,-0.001ZM13.857,14.161l-0.01,-0.006l0.006,0.003l0.004,0.003ZM17.161,14.156l-0.007,0.004l0.004,-0.002l0.003,-0.002ZM13.839,14.151l-0.01,-0.005l0.006,0.003l0.004,0.002ZM17.179,14.147l-0.006,0.003l0.002,-0.001l0.004,-0.002ZM4.894,14.148l-0.001,0l0.001,0l0,0ZM13.821,14.141l-0.01,-0.005l0.007,0.004l0.003,0.001ZM17.196,14.137l-0.005,0.003l0.002,-0.001l0.003,-0.002ZM4.874,14.137l-0.002,-0.001l0.001,0.001l0.001,0ZM13.802,14.131l-0.008,-0.005l0.006,0.004l0.002,0.001ZM17.214,14.128l-0.005,0.002l0.001,-0.001l0.004,-0.001ZM4.853,14.126l-0.002,-0.001l0.001,0l0.001,0.001ZM13.784,14.121l-0.008,-0.005l0.007,0.004l0.001,0.001ZM17.23,14.118l-0.003,0.002l0.001,0l0.002,-0.002ZM4.833,14.114l-0.002,-0.001l0,0.001l0.002,0ZM13.766,14.111l-0.006,-0.004l0.006,0.003l0,0.001ZM4.77,14.078l-0.005,-0.003l0.004,0.003l0.001,0ZM13.699,14.072l-0.003,-0.002l0.001,0l0.002,0.002ZM4.751,14.067l-0.007,-0.004l0.005,0.003l0.002,0.001ZM13.683,14.062l-0.004,-0.002l0.001,0l0.003,0.002ZM4.732,14.055l-0.008,-0.005l0.005,0.003l0.003,0.002ZM13.666,14.052l-0.004,-0.003l0.001,0.001l0.003,0.002ZM17.349,14.049l-0.003,0.001l0.002,-0.001l0.001,0ZM4.713,14.043l-0.008,-0.005l0.004,0.003l0.004,0.002ZM13.649,14.041l-0.005,-0.003l0.002,0.001l0.003,0.002ZM17.366,14.038l-0.003,0.002l0.002,-0.002l0.001,0ZM4.692,14.031l-0.007,-0.005l0.003,0.002l0.004,0.003ZM13.632,14.03l-0.005,-0.003l0.002,0.002l0.003,0.001ZM17.384,14.027l-0.005,0.003l0.003,-0.002l0.002,-0.001ZM13.614,14.019l-0.004,-0.003l0.002,0.002l0.002,0.001ZM17.401,14.016l-0.005,0.003l0.003,-0.002l0.002,-0.001ZM4.672,14.018l-0.006,-0.004l0.001,0.001l0.005,0.003ZM13.597,14.008l-0.004,-0.002l0.002,0.001l0.002,0.001ZM17.419,14.005l-0.006,0.003l0.003,-0.002l0.003,-0.001ZM4.647,14.002l-0.001,-0.001l0.001,0.001ZM17.436,13.993l-0.006,0.004l0.003,-0.002l0.003,-0.002ZM13.58,13.997l-0.004,-0.003l0.002,0.002l0.002,0.001ZM4.626,13.988l-0.002,-0.001l0.002,0.001l0,0ZM17.454,13.982l-0.007,0.004l0.002,-0.002l0.005,-0.002ZM13.563,13.986l-0.004,-0.003l0.003,0.002l0.001,0.001ZM4.607,13.975l-0.005,-0.003l0.003,0.002l0.002,0.001ZM17.471,13.97l-0.007,0.005l0.002,-0.002l0.005,-0.003ZM13.546,13.975l-0.004,-0.003l0.003,0.002l0.001,0.001ZM17.488,13.958l-0.008,0.006l0.003,-0.002l0.005,-0.004ZM13.529,13.964l-0.003,-0.003l0.003,0.002l0,0.001ZM4.587,13.962l-0.004,-0.003l0.002,0.002l0.002,0.001ZM17.506,13.946l-0.009,0.006l0.002,-0.001l0.007,-0.005ZM13.513,13.952l-0.003,-0.002l0.002,0.002l0.001,0ZM4.567,13.948l-0.004,-0.002l0.002,0.001l0.002,0.001ZM17.523,13.934l-0.009,0.007l0.002,-0.001l0.007,-0.006ZM4.546,13.934l-0.002,-0.001l0.001,0l0.001,0.001ZM17.542,13.921l-0.011,0.008l0.001,-0.001l0.01,-0.007ZM17.548,13.917c0.005,-0.004 0.011,-0.008 0.016,-0.012c0.006,-0.004 0.012,-0.008 0.017,-0.012l-0.017,0.012l-0.016,0.012ZM6.417,13.907c0.049,0.002 0.098,0.004 0.148,0.004c0.062,0 0.123,-0.002 0.184,-0.006c-0.049,0.003 -0.098,0.005 -0.147,0.005c-0.012,0.001 -0.025,0.001 -0.037,0.001c-0.049,0 -0.099,-0.002 -0.148,-0.004l0,0ZM15.357,13.907c0.049,0.002 0.098,0.004 0.148,0.004c0.062,0 0.123,-0.002 0.184,-0.006c-0.049,0.003 -0.098,0.005 -0.147,0.005c-0.012,0.001 -0.025,0.001 -0.037,0.001c-0.049,0 -0.098,-0.002 -0.148,-0.004l0,0ZM13.449,13.907l-0.002,-0.001l0.002,0.001ZM6.4,13.906l-0.006,0l0.005,0l0.001,0ZM15.34,13.906l-0.006,0l0.005,0l0.001,0ZM15.322,13.905l-0.007,-0.001l0.006,0.001l0.001,0ZM6.382,13.905l-0.007,-0.001l0.006,0.001l0.001,0ZM15.304,13.904l-0.007,-0.001l0.006,0.001l0.001,0ZM6.364,13.904l-0.008,-0.001l0.006,0.001l0.002,0ZM6.773,13.903l-0.006,0.001l0,0l0.006,-0.001ZM15.713,13.903l-0.006,0.001l0.001,0l0.005,-0.001ZM6.347,13.902l-0.008,0l0.005,0l0.003,0ZM15.287,13.902l-0.008,0l0.005,0l0.003,0ZM15.732,13.902l-0.008,0l0.002,0l0.006,0ZM6.792,13.902l-0.008,0l0.002,0l0.006,0ZM6.329,13.901l-0.008,-0.001l0.005,0.001l0.003,0ZM15.269,13.901l-0.008,-0.001l0.005,0.001l0.003,0ZM15.75,13.9l-0.008,0.001l0.002,0l0.006,-0.001ZM6.81,13.9l-0.008,0.001l0.002,0l0.006,-0.001ZM6.312,13.9l-0.009,-0.001l0.005,0l0.004,0.001ZM15.252,13.9l-0.009,-0.001l0.005,0l0.004,0.001ZM6.828,13.899l-0.008,0.001l0.002,-0.001l0.006,0ZM15.768,13.899l-0.008,0.001l0.002,-0.001l0.006,0ZM13.436,13.898l-0.006,-0.004l0.001,0l0.005,0.004ZM6.294,13.898l-0.009,-0.001l0.005,0.001l0.004,0ZM15.234,13.898l-0.009,-0.001l0.005,0.001l0.004,0ZM6.845,13.897l-0.008,0.001l0.003,0l0.005,-0.001ZM15.786,13.897l-0.009,0.001l0.003,0l0.006,-0.001ZM6.276,13.896l-0.008,-0.001l0.004,0.001l0.004,0ZM15.217,13.896l-0.009,-0.001l0.004,0.001l0.005,0ZM15.803,13.895l-0.008,0.001l0.003,0l0.005,-0.001ZM6.863,13.895l-0.008,0.001l0.003,0l0.005,-0.001ZM6.259,13.895l-0.009,-0.001l0.004,0l0.005,0.001ZM15.199,13.895l-0.009,-0.001l0.004,0l0.005,0.001ZM6.881,13.893l-0.009,0.001l0.004,0l0.005,-0.001ZM15.821,13.893l-0.009,0.001l0.004,0l0.005,-0.001ZM6.241,13.893l-0.008,-0.001l0.003,0l0.005,0.001ZM15.181,13.893l-0.008,-0.001l0.003,0l0.005,0.001ZM6.898,13.892l-0.008,0l0.004,0l0.004,0ZM15.838,13.892l-0.008,0l0.004,0l0.004,0ZM6.224,13.891l-0.009,-0.001l0.002,0l0.007,0.001ZM15.164,13.891l-0.009,-0.001l0.003,0l0.006,0.001ZM15.856,13.889l-0.009,0.001l0.005,0l0.004,-0.001ZM6.916,13.889l-0.009,0.001l0.005,0l0.004,-0.001ZM6.206,13.888l-0.008,-0.001l0.002,0.001l0.006,0ZM15.146,13.888l-0.008,-0.001l0.002,0.001l0.006,0ZM15.873,13.887l-0.008,0.001l0.005,0l0.003,-0.001ZM6.933,13.887l-0.008,0.001l0.005,0l0.003,-0.001ZM17.598,13.88l-0.01,0.008l0.01,-0.007l0,-0.001ZM8.65,13.887l-0.001,0l0,0l0.001,0ZM13.421,13.887l-0.008,-0.005l0.002,0.001l0.006,0.004ZM6.188,13.886l-0.007,-0.001l0.001,0l0.006,0.001ZM15.128,13.886l-0.007,-0.001l0.001,0l0.006,0.001ZM15.89,13.885l-0.008,0.001l0.006,-0.001l0.002,0ZM6.95,13.885l-0.008,0.001l0.006,-0.001l0.002,0ZM15.908,13.883l-0.008,0.001l0.006,-0.001l0.002,0ZM6.968,13.883l-0.008,0.001l0.006,-0.001l0.002,0ZM6.169,13.884l-0.006,-0.001l0.001,0l0.005,0.001ZM15.109,13.884l-0.006,-0.001l0.001,0l0.005,0.001ZM15.925,13.88l-0.007,0.001l0.006,-0.001l0.001,0ZM6.985,13.88l-0.007,0.001l0.006,-0.001l0.001,0ZM6.146,13.88c0,0 -0.022,-0.003 -0.022,-0.003c0.007,0.001 0.015,0.002 0.022,0.003ZM15.086,13.88c0,0 -0.022,-0.003 -0.022,-0.003c0.007,0.001 0.015,0.002 0.022,0.003ZM7.002,13.877l-0.006,0.001l0.006,0l0,-0.001ZM15.942,13.877l-0.006,0.001l0.006,0l0,-0.001ZM8.666,13.875l-0.003,0.002l0.001,-0.001l0.002,-0.001ZM15.058,13.876l-0.017,-0.003l0.009,0.002l0.008,0.001ZM6.118,13.876l-0.017,-0.003l0.009,0.002l0.008,0.001ZM4.465,13.876l0,0l0,0ZM13.405,13.875l-0.008,-0.006l0.002,0.002l0.006,0.004ZM7.02,13.875c0.007,-0.001 0.014,-0.003 0.021,-0.004l-0.021,0.004l0,0ZM15.96,13.875c0.007,-0.001 0.014,-0.003 0.021,-0.004l-0.021,0.004l0,0ZM17.615,13.868l-0.009,0.007l0.008,-0.006l0.001,-0.001ZM6.096,13.873l-0.022,-0.004l-0.024,-0.004c0.016,0.002 0.031,0.005 0.046,0.008ZM15.036,13.873l-0.022,-0.004l-0.024,-0.004c0.016,0.002 0.031,0.005 0.046,0.008ZM16.005,13.867l-0.018,0.003l0.008,-0.001l0.01,-0.002ZM7.065,13.867l-0.018,0.003l0.008,-0.001l0.01,-0.002ZM16.009,13.866c0.015,-0.002 0.031,-0.005 0.046,-0.008l-0.023,0.004l-0.023,0.004ZM7.069,13.866c0.015,-0.002 0.031,-0.005 0.046,-0.008l-0.023,0.004l-0.023,0.004ZM8.681,13.864l-0.003,0.001l0.001,0l0.002,-0.001ZM6.049,13.864c-0.191,-0.034 -0.379,-0.089 -0.559,-0.162c0.178,0.072 0.365,0.127 0.559,0.162ZM14.989,13.864c-0.191,-0.034 -0.379,-0.089 -0.559,-0.162c0.178,0.072 0.365,0.127 0.559,0.162ZM13.389,13.863l-0.009,-0.006l0.003,0.002l0.006,0.004ZM17.631,13.856l-0.007,0.006l0.007,-0.006l0,0ZM4.446,13.861l-0.001,0l0.001,0ZM7.116,13.858c0.193,-0.038 0.379,-0.095 0.556,-0.169c-0.179,0.075 -0.365,0.132 -0.556,0.169ZM16.056,13.858c0.193,-0.038 0.379,-0.095 0.556,-0.169c-0.179,0.075 -0.365,0.132 -0.556,0.169ZM13.372,13.851l-0.008,-0.007l0.003,0.003l0.005,0.004ZM17.648,13.843l-0.007,0.005l0.006,-0.004l0.001,-0.001ZM8.708,13.843l-0.007,0.005l0.007,-0.005l0,0ZM13.356,13.838l-0.009,-0.007l0.004,0.004l0.005,0.003ZM8.724,13.83l-0.009,0.007l0.007,-0.005l0.002,-0.002ZM17.664,13.83l-0.006,0.005l0.005,-0.004l0.001,-0.001ZM13.34,13.826l-0.009,-0.007l0.004,0.003l0.005,0.004ZM8.74,13.818l-0.009,0.007l0.006,-0.004l0.003,-0.003ZM17.681,13.818l-0.007,0.004l0.005,-0.003l0.002,-0.001ZM8.756,13.806l-0.009,0.007l0.004,-0.004l0.005,-0.003ZM13.323,13.813l-0.008,-0.007l0.004,0.004l0.004,0.003ZM17.697,13.805l-0.006,0.004l0.004,-0.003l0.002,-0.001ZM13.307,13.8l-0.008,-0.007l0.005,0.004l0.003,0.003ZM8.772,13.793l-0.009,0.007l0.004,-0.003l0.005,-0.004ZM17.713,13.792l-0.005,0.004l0.003,-0.003l0.002,-0.001ZM13.291,13.787l-0.008,-0.007l0.005,0.005l0.003,0.002ZM8.787,13.78l-0.008,0.007l0.003,-0.002l0.005,-0.005ZM17.729,13.779l-0.005,0.004l0.003,-0.003l0.002,-0.001ZM13.275,13.774l-0.008,-0.007l0.005,0.005l0.003,0.002ZM8.802,13.768l-0.007,0.006l0.002,-0.002l0.005,-0.004ZM4.33,13.77l0,0l0,0ZM17.745,13.766l-0.005,0.004l0.003,-0.003l0.002,-0.001ZM13.259,13.761l-0.008,-0.007l0.006,0.005l0.002,0.002ZM8.816,13.757l-0.004,0.003l0.001,0l0.003,-0.003ZM17.761,13.753l-0.005,0.004l0.003,-0.003l0.002,-0.001ZM4.311,13.755l0,-0.001l0,0.001ZM13.243,13.747l-0.007,-0.005l0.005,0.004l0.002,0.001ZM8.828,13.747l0,0l0,0l0,0ZM17.777,13.74l-0.005,0.003l0.003,-0.002l0.002,-0.001ZM13.227,13.734l-0.006,-0.005l0.005,0.004l0.001,0.001ZM17.792,13.726l-0.004,0.004l0.003,-0.002l0.001,-0.002ZM13.211,13.72l-0.004,-0.003l0.003,0.003l0.001,0ZM17.808,13.713l-0.004,0.003l0.002,-0.002l0.002,-0.001ZM17.824,13.699l-0.004,0.004l0.002,-0.002l0.002,-0.002ZM5.489,13.702l-0.021,-0.009l0.012,0.005l0.009,0.004ZM14.429,13.702l-0.021,-0.009l0.012,0.005l0.009,0.004ZM5.467,13.693l-0.022,-0.009c0.008,0.003 0.015,0.006 0.022,0.009ZM14.407,13.693l-0.021,-0.009c0.007,0.003 0.014,0.006 0.021,0.009ZM4.237,13.691l-0.002,-0.001l0.001,0.001l0.001,0ZM17.839,13.685l-0.004,0.004l0.002,-0.002l0.002,-0.002ZM16.634,13.68l-0.02,0.008l0.008,-0.003l0.012,-0.005ZM7.694,13.68l-0.021,0.008l0.009,-0.003l0.012,-0.005ZM14.382,13.683l-0.017,-0.008l0.007,0.003l0.01,0.005ZM5.442,13.683l-0.017,-0.008l0.007,0.003l0.01,0.005ZM7.716,13.67l-0.021,0.009c0.007,-0.003 0.014,-0.006 0.021,-0.009ZM16.657,13.67l-0.022,0.009c0.007,-0.003 0.015,-0.006 0.022,-0.009ZM4.219,13.676l-0.003,-0.003l0.002,0.001l0.001,0.002ZM17.855,13.672l-0.004,0.003l0.001,-0.001l0.003,-0.002ZM5.42,13.673l-0.02,-0.009c0.007,0.003 0.013,0.006 0.02,0.009ZM14.36,13.673l-0.02,-0.009c0.007,0.003 0.013,0.006 0.02,0.009ZM16.677,13.661l-0.017,0.008l0.01,-0.005l0.007,-0.003ZM7.737,13.661l-0.017,0.008l0.01,-0.005l0.007,-0.003ZM17.87,13.658l-0.004,0.004l0.002,-0.002l0.002,-0.002ZM4.202,13.66l-0.004,-0.004l0.002,0.002l0.002,0.002ZM7.742,13.659c0.006,-0.003 0.013,-0.006 0.02,-0.009c0,0 -0.02,0.009 -0.02,0.009ZM16.682,13.659c0.007,-0.003 0.013,-0.006 0.02,-0.009c0,0 -0.02,0.009 -0.02,0.009ZM5.385,13.657l-0.005,-0.002l0.004,0.002l0.001,0ZM14.325,13.657l-0.005,-0.002l0.004,0.002l0.001,0ZM5.37,13.651l-0.006,-0.003l0.004,0.002l0.002,0.001ZM14.311,13.651l-0.007,-0.003l0.004,0.002l0.003,0.001ZM17.886,13.644l-0.005,0.004l0.002,-0.002l0.003,-0.002ZM5.356,13.644l-0.007,-0.003l0.003,0.001l0.004,0.002ZM14.296,13.644l-0.007,-0.003l0.003,0.001l0.004,0.002ZM4.185,13.644l-0.005,-0.004l0.002,0.001l0.003,0.003ZM7.782,13.64l-0.006,0.003l0.002,-0.001l0.004,-0.002ZM16.722,13.64l-0.005,0.003l0.001,-0.001l0.004,-0.002ZM6.565,13.641c0.045,0 0.089,-0.001 0.134,-0.003c0.082,-0.004 0.164,-0.012 0.246,-0.024c0.233,-0.034 0.461,-0.1 0.675,-0.196c0.258,-0.115 0.497,-0.272 0.705,-0.463c0.207,-0.191 0.384,-0.415 0.52,-0.662c0.123,-0.223 0.212,-0.464 0.265,-0.713c0.061,-0.286 0.072,-0.582 0.035,-0.871c-0.033,-0.266 -0.109,-0.525 -0.222,-0.768c-0.132,-0.284 -0.317,-0.543 -0.541,-0.762c-0.232,-0.227 -0.506,-0.41 -0.805,-0.536c-0.162,-0.069 -0.331,-0.12 -0.504,-0.155c-0.162,-0.032 -0.326,-0.048 -0.491,-0.049c-0.166,-0.001 -0.331,0.013 -0.494,0.043c-0.173,0.032 -0.343,0.082 -0.506,0.149c-0.3,0.123 -0.577,0.302 -0.811,0.526c-0.227,0.217 -0.415,0.474 -0.551,0.756c-0.116,0.24 -0.194,0.499 -0.231,0.763c-0.039,0.279 -0.033,0.564 0.018,0.84c0.046,0.246 0.127,0.485 0.241,0.708c0.134,0.26 0.311,0.497 0.523,0.699c0.208,0.198 0.448,0.362 0.71,0.482c0.218,0.1 0.45,0.17 0.688,0.206c0.081,0.013 0.163,0.021 0.245,0.026c0.039,0.002 0.078,0.004 0.117,0.004c0.011,0 0.023,0 0.034,0ZM15.505,13.641c0.045,0 0.089,-0.001 0.134,-0.003c0.082,-0.004 0.164,-0.012 0.246,-0.024c0.233,-0.034 0.461,-0.1 0.676,-0.196c0.262,-0.117 0.505,-0.278 0.716,-0.474c0.217,-0.203 0.4,-0.442 0.538,-0.706c0.112,-0.217 0.194,-0.45 0.242,-0.69c0.055,-0.281 0.064,-0.572 0.026,-0.856c-0.035,-0.265 -0.112,-0.524 -0.226,-0.765c-0.133,-0.278 -0.315,-0.533 -0.535,-0.748c-0.232,-0.227 -0.506,-0.409 -0.805,-0.536c-0.167,-0.071 -0.341,-0.124 -0.52,-0.158c-0.156,-0.03 -0.316,-0.045 -0.475,-0.046c-0.165,-0.001 -0.331,0.013 -0.493,0.043c-0.174,0.032 -0.344,0.082 -0.507,0.149c-0.3,0.123 -0.577,0.302 -0.811,0.526c-0.227,0.217 -0.415,0.474 -0.551,0.756c-0.116,0.24 -0.194,0.499 -0.231,0.763c-0.041,0.289 -0.032,0.586 0.024,0.872c0.049,0.245 0.133,0.483 0.25,0.704c0.131,0.249 0.304,0.476 0.508,0.671c0.208,0.198 0.448,0.362 0.71,0.482c0.218,0.1 0.45,0.17 0.688,0.206c0.081,0.013 0.163,0.021 0.245,0.026c0.039,0.002 0.078,0.004 0.117,0.004c0.012,0 0.023,0 0.034,0ZM13.121,13.641l-0.002,-0.002l0.001,0.001l0.001,0.001ZM5.342,13.638l-0.009,-0.005l0.004,0.002l0.005,0.003ZM14.282,13.638l-0.008,-0.005l0.003,0.002l0.005,0.003ZM7.798,13.633l-0.007,0.003l0.002,-0.001l0.005,-0.002ZM16.738,13.633l-0.007,0.003l0.002,-0.001l0.005,-0.002ZM17.901,13.63l-0.004,0.004l0.001,-0.002l0.003,-0.002ZM14.269,13.631c-0.239,-0.114 -0.462,-0.262 -0.661,-0.438c0.198,0.175 0.42,0.323 0.661,0.438ZM5.329,13.631c-0.239,-0.114 -0.462,-0.262 -0.661,-0.438c0.198,0.175 0.42,0.323 0.661,0.438ZM16.753,13.626l-0.008,0.003l0.004,-0.002l0.004,-0.001ZM7.813,13.626l-0.008,0.003l0.004,-0.002l0.004,-0.001ZM13.107,13.628l-0.003,-0.003l0.001,0.001l0.002,0.002ZM4.166,13.627l-0.003,-0.003l0.001,0.001l0.002,0.002ZM7.828,13.618l-0.009,0.004l0.006,-0.002l0.003,-0.002ZM16.768,13.618l-0.009,0.004l0.006,-0.002l0.003,-0.002ZM17.916,13.615l-0.004,0.005l0.001,-0.001l0.003,-0.004ZM7.832,13.616c0.236,-0.116 0.454,-0.264 0.648,-0.438c-0.195,0.175 -0.413,0.323 -0.648,0.438ZM16.772,13.616c0.236,-0.116 0.454,-0.264 0.648,-0.438c-0.195,0.175 -0.413,0.323 -0.648,0.438ZM13.093,13.615l-0.004,-0.004l0.001,0.001l0.003,0.003ZM17.932,13.601l-0.005,0.005l0.001,-0.002l0.004,-0.003ZM13.078,13.601l-0.004,-0.004l0.001,0.001l0.003,0.003ZM4.129,13.592l-0.005,-0.005l0.004,0.004l0.001,0.001ZM17.947,13.586l-0.005,0.005l0.001,-0.001l0.004,-0.004ZM13.064,13.587l-0.005,-0.004l0.002,0.001l0.003,0.003ZM17.962,13.572l-0.005,0.005l0.001,-0.001l0.004,-0.004ZM4.113,13.576l-0.007,-0.006l0.004,0.004l0.003,0.002ZM13.049,13.573l-0.004,-0.004l0.001,0.001l0.003,0.003ZM17.977,13.557l-0.006,0.006l0.001,-0.001l0.005,-0.005ZM4.096,13.56l-0.006,-0.006l0.003,0.003l0.003,0.003ZM13.035,13.559l-0.005,-0.005l0.002,0.002l0.003,0.003ZM17.992,13.542l-0.006,0.006l0.001,-0.001l0.005,-0.005ZM13.02,13.545l-0.005,-0.005l0.003,0.002l0.002,0.003ZM4.079,13.543l-0.006,-0.006l0.002,0.002l0.004,0.004ZM18.008,13.527l-0.007,0.007l0.001,-0.001l0.006,-0.006ZM13.006,13.53l-0.006,-0.005l0.003,0.003l0.003,0.002ZM4.06,13.525l-0.004,-0.004l0.001,0.001l0.003,0.003ZM18.023,13.511l-0.008,0.008l0.001,-0.001l0.007,-0.007ZM12.991,13.516l-0.005,-0.006l0.003,0.003l0.002,0.003ZM18.039,13.495l-0.009,0.009l0,0l0.009,-0.009ZM4.04,13.504l-0.002,-0.002l0.001,0.002l0.001,0ZM12.977,13.501l-0.006,-0.006l0.004,0.004l0.002,0.002ZM18.044,13.489c0.005,-0.005 0.01,-0.01 0.015,-0.015c0.005,-0.005 0.009,-0.01 0.014,-0.015l-0.014,0.015l-0.015,0.015ZM4.023,13.487l-0.004,-0.004l0.003,0.003l0.001,0.001ZM12.963,13.486l-0.006,-0.006l0.004,0.004l0.002,0.002ZM12.949,13.472l-0.007,-0.007l0.005,0.005l0.002,0.002ZM4.006,13.469l-0.004,-0.004l0.003,0.002l0.001,0.002ZM12.935,13.457l-0.007,-0.007l0.005,0.005l0.002,0.002ZM18.087,13.444l-0.009,0.01l0.009,-0.009l0,-0.001ZM3.989,13.451l-0.003,-0.003l0.001,0.001l0.002,0.002ZM12.921,13.442l-0.008,-0.008l0.006,0.006l0.002,0.002ZM18.101,13.429l-0.007,0.008l0.006,-0.007l0.001,-0.001ZM3.971,13.431l-0.001,-0.001l0.001,0.001ZM12.907,13.427l-0.008,-0.009l0.007,0.008l0.001,0.001ZM18.115,13.414l-0.007,0.007l0.006,-0.006l0.001,-0.001ZM12.893,13.411l-0.009,-0.009l0.008,0.009l0.001,0ZM18.129,13.399l-0.007,0.007l0.006,-0.006l0.001,-0.001ZM12.879,13.396l-0.014,-0.015l-0.014,-0.016c0.005,0.005 0.009,0.01 0.014,0.016c0.005,0.005 0.009,0.01 0.014,0.015ZM18.143,13.383l-0.006,0.007l0.004,-0.005l0.002,-0.002ZM3.92,13.375l-0.001,-0.001l0.001,0.001ZM18.156,13.368l-0.005,0.006l0.003,-0.004l0.002,-0.002ZM18.17,13.352l-0.006,0.007l0.004,-0.004l0.002,-0.003ZM12.845,13.358l-0.008,-0.009l0.001,0l0.007,0.009ZM3.903,13.356l0,-0.001l0,0.001ZM18.183,13.337l-0.005,0.006l0.003,-0.004l0.002,-0.002ZM12.829,13.34l-0.005,-0.007l0,0l0.005,0.007ZM18.196,13.322l-0.004,0.005l0.002,-0.003l0.002,-0.002ZM12.814,13.322l-0.004,-0.005l0,0l0.004,0.005ZM18.209,13.306l-0.004,0.005l0.002,-0.002l0.002,-0.003ZM12.8,13.305l-0.003,-0.004l0,0l0.003,0.004ZM18.222,13.29l-0.004,0.005l0.002,-0.002l0.002,-0.003ZM12.786,13.288l-0.003,-0.003l0.001,0l0.002,0.003ZM18.235,13.275l-0.004,0.004l0.002,-0.002l0.002,-0.002ZM12.772,13.271l-0.002,-0.002l0,0l0.002,0.002ZM18.248,13.259l-0.003,0.004l0.001,-0.001l0.002,-0.003ZM12.758,13.255l-0.001,-0.002l0.001,0.002ZM18.261,13.243l-0.003,0.004l0,-0.001l0.003,-0.003ZM12.745,13.238l-0.001,-0.001l0.001,0.001ZM18.273,13.228l-0.003,0.003l0.001,-0.001l0.002,-0.002ZM12.732,13.221l-0.001,-0.001l0.001,0.001ZM18.285,13.212l-0.002,0.003l0.001,-0.001l0.001,-0.002ZM12.719,13.205l-0.001,-0.001l0.001,0.001ZM18.297,13.197l-0.001,0.002l0,-0.001l0.001,-0.001ZM4.664,13.19l-0.007,-0.006l0.004,0.004l0.003,0.002ZM13.604,13.19l-0.007,-0.006l0.004,0.004l0.003,0.002ZM12.706,13.188l-0.001,-0.001l0.001,0.001ZM4.651,13.179l-0.006,-0.005l0.003,0.002l0.003,0.003ZM13.591,13.179l-0.006,-0.005l0.003,0.002l0.003,0.003ZM8.488,13.171l-0.008,0.007l0.002,-0.002l0.006,-0.005ZM17.428,13.171l-0.008,0.007l0.002,-0.002l0.006,-0.005ZM12.693,13.172l0,-0.001l0,0.001ZM4.639,13.168l-0.006,-0.005l0.002,0.002l0.004,0.003ZM13.579,13.168l-0.006,-0.005l0.002,0.002l0.004,0.003ZM17.439,13.161l-0.007,0.006l0.003,-0.002l0.004,-0.004ZM8.499,13.161l-0.007,0.006l0.003,-0.002l0.004,-0.004ZM3.745,13.16l-0.001,0l0.001,0ZM13.566,13.156l-0.004,-0.004l0.001,0.001l0.003,0.003ZM4.626,13.156l-0.004,-0.004l0,0.001l0.004,0.003ZM8.51,13.15l-0.006,0.006l0.003,-0.003l0.003,-0.003ZM17.45,13.15l-0.006,0.006l0.003,-0.003l0.003,-0.003ZM12.681,13.155l-0.001,-0.001l0.001,0.001ZM8.522,13.14l-0.006,0.005l0.004,-0.004l0.002,-0.001ZM17.462,13.14l-0.005,0.005l0.003,-0.004l0.002,-0.001ZM3.73,13.14l-0.001,0l0.001,0ZM12.669,13.138l-0.002,-0.001l0.002,0.001ZM8.533,13.129l-0.004,0.004l0.004,-0.004l0,0ZM17.474,13.129l-0.005,0.004l0.004,-0.004l0.001,0ZM4.598,13.13l-0.004,-0.004l0.003,0.003l0.001,0.001ZM13.538,13.13l-0.004,-0.004l0.003,0.003l0.001,0.001ZM12.656,13.122l-0.001,-0.002l0,0.001l0.001,0.001ZM4.586,13.119l-0.005,-0.005l0.004,0.004l0.001,0.001ZM13.526,13.119l-0.005,-0.005l0.004,0.004l0.001,0.001ZM13.515,13.108l-0.007,-0.006l0.004,0.004l0.003,0.002ZM4.575,13.108l-0.007,-0.006l0.004,0.004l0.003,0.002ZM17.501,13.102l-0.004,0.004l0.001,0l0.003,-0.004ZM8.561,13.102l-0.004,0.004l0.001,0l0.003,-0.004ZM12.644,13.105l-0.001,-0.002l0,0.001l0.001,0.001ZM18.369,13.101l-0.003,0.003l0.003,-0.003l0,0ZM13.503,13.097l-0.007,-0.007l0.004,0.004l0.003,0.003ZM4.563,13.097l-0.007,-0.007l0.004,0.004l0.003,0.003ZM8.573,13.09l-0.005,0.005l0.002,-0.001l0.003,-0.004ZM17.513,13.09l-0.005,0.005l0.002,-0.001l0.003,-0.004ZM18.381,13.084l-0.004,0.006l0.003,-0.005l0.001,-0.001ZM12.632,13.088l-0.002,-0.002l0.001,0.001l0.001,0.001ZM13.492,13.086l-0.008,-0.008l0.004,0.004l0.004,0.004ZM4.552,13.086l-0.008,-0.008l0.004,0.004l0.004,0.004ZM8.585,13.079l-0.006,0.005l0.003,-0.002l0.003,-0.003ZM17.525,13.079l-0.005,0.005l0.002,-0.002l0.003,-0.003ZM3.685,13.079l-0.001,-0.001l0.001,0.001ZM13.482,13.076c-0.188,-0.187 -0.351,-0.4 -0.481,-0.631c0.131,0.232 0.293,0.444 0.481,0.631ZM4.542,13.076c-0.188,-0.187 -0.351,-0.4 -0.481,-0.631c0.131,0.232 0.293,0.444 0.481,0.631ZM18.393,13.067l-0.005,0.007l0.004,-0.006l0.001,-0.001ZM8.597,13.067l-0.007,0.006l0.004,-0.004l0.003,-0.002ZM17.537,13.067l-0.006,0.006l0.003,-0.004l0.003,-0.002ZM12.62,13.072l-0.002,-0.003l0.001,0.001l0.001,0.002ZM8.609,13.055l-0.008,0.008l0.006,-0.006l0.002,-0.002ZM17.549,13.055l-0.008,0.008l0.006,-0.006l0.002,-0.002ZM3.672,13.06l-0.003,-0.004l0.002,0.002l0.001,0.002ZM18.405,13.05l-0.005,0.008l0.004,-0.006l0.001,-0.002ZM12.608,13.055l-0.002,-0.003l0.001,0.001l0.001,0.002ZM8.609,13.055c0.183,-0.185 0.34,-0.395 0.467,-0.624c-0.126,0.228 -0.284,0.438 -0.467,0.624ZM17.549,13.055c0.183,-0.185 0.34,-0.395 0.467,-0.624c-0.126,0.228 -0.284,0.438 -0.467,0.624ZM18.417,13.033l-0.006,0.008l0.004,-0.006l0.002,-0.002ZM3.658,13.04l-0.003,-0.005l0.001,0.002l0.002,0.003ZM12.597,13.038l-0.003,-0.004l0.001,0.001l0.002,0.003ZM18.429,13.016l-0.006,0.008l0.004,-0.005l0.002,-0.003ZM12.585,13.021l-0.003,-0.004l0.001,0.001l0.002,0.003ZM3.644,13.02l-0.003,-0.005l0.001,0.002l0.002,0.003ZM18.44,12.998l-0.006,0.009l0.004,-0.005l0.002,-0.004ZM12.574,13.004l-0.004,-0.005l0.001,0.002l0.003,0.003ZM3.629,12.997l-0.001,-0.001l0.001,0.001ZM18.452,12.981l-0.006,0.009l0.003,-0.005l0.003,-0.004ZM12.562,12.987l-0.004,-0.006l0.002,0.002l0.002,0.004ZM9.509,12.985l-0.001,0.001l0.001,0l0,-0.001ZM3.615,12.976l-0.004,-0.005l0.003,0.004l0.001,0.001ZM18.463,12.963l-0.006,0.01l0.003,-0.005l0.003,-0.005ZM9.521,12.967l-0.002,0.003l0,-0.001l0.002,-0.002ZM12.551,12.97l-0.004,-0.007l0.001,0.003l0.003,0.004ZM3.602,12.956l-0.005,-0.007l0.003,0.005l0.002,0.002ZM18.474,12.946l-0.006,0.01l0.003,-0.004l0.003,-0.006ZM9.532,12.95l-0.003,0.004l0.001,-0.001l0.002,-0.003ZM12.54,12.953l-0.005,-0.007l0.002,0.002l0.003,0.005ZM18.485,12.929l-0.006,0.009l0.003,-0.003l0.003,-0.006ZM9.544,12.931l-0.004,0.007l0.001,-0.002l0.003,-0.005ZM3.589,12.936l-0.005,-0.007l0.003,0.003l0.002,0.004ZM12.529,12.935l-0.005,-0.007l0.002,0.003l0.003,0.004ZM9.556,12.913l-0.006,0.008l0.001,-0.002l0.005,-0.006ZM18.496,12.912l-0.005,0.009l0.001,-0.003l0.004,-0.006ZM12.517,12.918l-0.005,-0.008l0.003,0.003l0.002,0.005ZM3.577,12.917l-0.005,-0.008l0.002,0.003l0.003,0.005ZM9.568,12.894l-0.007,0.01l0.001,-0.001l0.006,-0.009ZM18.507,12.895l-0.005,0.008l0.001,-0.001l0.004,-0.007ZM12.506,12.9l-0.005,-0.008l0.002,0.003l0.003,0.005ZM3.564,12.896l-0.004,-0.006l0.001,0.001l0.003,0.005ZM9.572,12.887c0.003,-0.006 0.007,-0.012 0.011,-0.018c0.003,-0.005 0.006,-0.011 0.009,-0.016l-0.009,0.016l-0.011,0.018ZM18.517,12.878l-0.005,0.008l0.001,-0.001l0.004,-0.007ZM12.495,12.882l-0.005,-0.009l0.003,0.005l0.002,0.004ZM3.549,12.871l-0.001,-0.001l0.001,0.001ZM12.485,12.865l-0.006,-0.01l0.003,0.005l0.003,0.005ZM3.535,12.849l0,0l0,0ZM9.602,12.836l-0.007,0.012l0.003,-0.005l0.004,-0.007ZM12.474,12.846l-0.006,-0.009l0.003,0.005l0.003,0.004ZM18.543,12.834l0,0.002l0,-0.002l0,0ZM9.614,12.816l-0.009,0.015c0.003,-0.005 0.006,-0.01 0.009,-0.015ZM3.523,12.829l-0.002,-0.003l0.002,0.002l0,0.001ZM12.463,12.829l-0.005,-0.01l0.003,0.005l0.002,0.005ZM18.554,12.817l-0.003,0.004l0.002,-0.003l0.001,-0.001ZM12.452,12.81l-0.005,-0.009l0.003,0.006l0.002,0.003ZM9.623,12.8l-0.005,0.01l0.004,-0.007l0.001,-0.003ZM3.511,12.809l-0.002,-0.004l0.002,0.002l0,0.002ZM18.564,12.799l-0.003,0.005l0.002,-0.004l0.001,-0.001ZM12.442,12.792l-0.005,-0.009l0.003,0.006l0.002,0.003ZM9.632,12.785l-0.004,0.007l0.001,-0.002l0.003,-0.005ZM3.499,12.788l-0.001,-0.003l0,0.001l0.001,0.002ZM18.574,12.782l-0.003,0.005l0.002,-0.004l0.001,-0.001ZM12.432,12.774l-0.005,-0.008l0.003,0.005l0.002,0.003ZM18.584,12.764l-0.003,0.005l0.002,-0.003l0.001,-0.002ZM9.644,12.763l-0.001,0.003l0.001,-0.002l0,-0.001ZM3.487,12.765l-0.001,0l0.001,0ZM12.421,12.756l-0.004,-0.008l0.003,0.005l0.001,0.003ZM18.594,12.747l-0.003,0.005l0.001,-0.003l0.002,-0.002ZM9.652,12.749l-0.001,0.002l0.001,-0.001l0,-0.001ZM12.411,12.737l-0.004,-0.006l0.003,0.005l0.001,0.001ZM18.603,12.729l-0.002,0.005l0.001,-0.002l0.001,-0.003ZM12.401,12.719l-0.003,-0.005l0.002,0.004l0.001,0.001ZM18.613,12.712l-0.002,0.004l0,-0.001l0.002,-0.003ZM12.391,12.7l-0.002,-0.003l0.002,0.003l0,0ZM18.622,12.695l-0.002,0.003l0.001,-0.001l0.001,-0.002ZM18.631,12.678l-0.001,0.002l0,0l0.001,-0.002ZM18.675,12.592l-0.002,0.003l0.001,-0.003l0.001,0ZM18.684,12.573l-0.003,0.006l0.002,-0.005l0.001,-0.001ZM18.693,12.554l-0.004,0.007l0.003,-0.004l0.001,-0.003ZM18.702,12.536l-0.004,0.007l0.002,-0.004l0.002,-0.003ZM12.308,12.536l0,-0.001l0,0.001ZM18.71,12.517l-0.003,0.008l0.001,-0.004l0.002,-0.004ZM12.3,12.518l-0.001,-0.002l0.001,0.001l0,0.001ZM18.719,12.498l-0.004,0.009l0.002,-0.004l0.002,-0.005ZM12.292,12.5l-0.001,-0.003l0,0.001l0.001,0.002ZM18.728,12.478l-0.005,0.01l0.002,-0.003l0.003,-0.007ZM12.284,12.482l-0.002,-0.004l0.001,0.002l0.001,0.002ZM18.736,12.459l-0.004,0.011l0.001,-0.003l0.003,-0.008ZM12.276,12.463l-0.002,-0.004l0,0.002l0.002,0.002ZM18.745,12.439l-0.005,0.012l0.001,-0.002l0.004,-0.01ZM12.267,12.445l-0.002,-0.005l0.001,0.002l0.001,0.003ZM13,12.442l-0.006,-0.01l0.004,0.006l0.002,0.004ZM4.06,12.442l-0.006,-0.01l0.004,0.006l0.002,0.004ZM18.748,12.432l0.001,-0.001l0.007,-0.018l-0.008,0.019ZM12.992,12.428l-0.005,-0.009l0.002,0.004l0.003,0.005ZM4.052,12.428l-0.005,-0.009l0.002,0.004l0.003,0.005ZM12.259,12.426l-0.002,-0.005l0.001,0.003l0.001,0.002ZM9.083,12.418l-0.004,0.008l0.002,-0.003l0.002,-0.005ZM18.023,12.418l-0.004,0.008l0.002,-0.003l0.002,-0.005ZM4.044,12.413l-0.005,-0.008l0.002,0.003l0.003,0.005ZM12.984,12.413l-0.005,-0.008l0.002,0.003l0.003,0.005ZM9.091,12.404l-0.004,0.007l0.002,-0.003l0.002,-0.004ZM18.031,12.404l-0.004,0.007l0.002,-0.003l0.002,-0.004ZM12.251,12.407l-0.002,-0.006l0.001,0.004l0.001,0.002ZM4.035,12.398l-0.003,-0.007l0.001,0.002l0.002,0.005ZM12.975,12.398l-0.003,-0.007l0.001,0.002l0.002,0.005ZM9.098,12.39l-0.003,0.007l0.002,-0.004l0.001,-0.003ZM18.038,12.39l-0.003,0.007l0.002,-0.004l0.001,-0.003ZM18.769,12.383l-0.003,0.007l0.001,-0.002l0.002,-0.005ZM12.243,12.388l-0.002,-0.007l0.001,0.005l0.001,0.002ZM12.967,12.382l-0.003,-0.006l0.001,0.001l0.002,0.005ZM4.027,12.382l-0.003,-0.006l0.001,0.001l0.002,0.005ZM18.046,12.376l-0.003,0.005l0.002,-0.004l0.001,-0.001ZM9.106,12.376l-0.003,0.005l0.002,-0.004l0.001,-0.001ZM3.296,12.37l-0.001,-0.002l0.001,0.002ZM12.236,12.369l-0.003,-0.007l0.002,0.005l0.001,0.002ZM18.778,12.36l-0.002,0.006l0.001,-0.003l0.001,-0.003ZM4.016,12.362l-0.01,-0.02l0.003,0.004l0.007,0.016ZM9.113,12.362l0.008,-0.016l0.003,-0.005l-0.011,0.021ZM12.957,12.362l-0.011,-0.02l0.003,0.004l0.008,0.016ZM18.053,12.362l0.008,-0.016l0.003,-0.005l-0.011,0.021ZM12.228,12.35l-0.003,-0.008l0.002,0.006l0.001,0.002ZM3.287,12.348l-0.002,-0.005l0.001,0.004l0.001,0.001ZM18.788,12.337l-0.002,0.003l0.001,-0.003l0.001,0ZM12.944,12.337l-0.01,-0.02l0.007,0.014l0.003,0.006ZM4.004,12.337l-0.01,-0.02l0.007,0.014l0.003,0.006ZM18.067,12.336c0.007,-0.014 0.014,-0.028 0.021,-0.042l-0.011,0.022l-0.01,0.02ZM9.126,12.336c0.008,-0.014 0.015,-0.028 0.022,-0.042l-0.011,0.022l-0.011,0.02ZM12.22,12.331l-0.003,-0.009l0.002,0.007l0.001,0.002ZM3.279,12.327l-0.003,-0.007l0.001,0.004l0.002,0.003ZM12.934,12.317l-0.011,-0.022c0.003,0.007 0.007,0.014 0.011,0.022ZM3.993,12.317l-0.01,-0.022c0.003,0.007 0.007,0.014 0.01,0.022ZM12.213,12.312l-0.004,-0.011l0.003,0.009l0.001,0.002ZM3.27,12.305l-0.003,-0.007l0.002,0.003l0.001,0.004ZM12.922,12.293c-0.092,-0.189 -0.163,-0.389 -0.211,-0.593c0.048,0.207 0.12,0.405 0.211,0.593ZM3.982,12.293c-0.092,-0.189 -0.163,-0.389 -0.211,-0.593c0.048,0.207 0.12,0.405 0.211,0.593ZM12.205,12.292l-0.004,-0.012l0.004,0.011l0,0.001ZM18.089,12.291c0.096,-0.198 0.171,-0.41 0.219,-0.631c-0.048,0.218 -0.122,0.431 -0.219,0.631ZM9.149,12.291c0.096,-0.198 0.171,-0.41 0.219,-0.631c-0.048,0.218 -0.122,0.431 -0.219,0.631ZM18.807,12.286l0,0.001l0,0l0,-0.001ZM3.262,12.284l-0.003,-0.008l0.001,0.002l0.002,0.006ZM12.198,12.272l-0.007,-0.019l-0.007,-0.018c0.002,0.006 0.004,0.012 0.007,0.018c0.002,0.006 0.004,0.013 0.007,0.019ZM3.253,12.261l-0.002,-0.007l0,0.001l0.002,0.006ZM12.182,12.23l-0.005,-0.015l0.003,0.01l0.002,0.005ZM3.236,12.212l-0.002,-0.005l0.002,0.005l0,0ZM12.176,12.211l-0.006,-0.016c0.002,0.005 0.004,0.011 0.006,0.016ZM3.228,12.191l-0.001,-0.005l0.001,0.005l0,0ZM12.167,12.187l-0.003,-0.01l0.002,0.005l0.001,0.005ZM3.221,12.17l-0.001,-0.004l0.001,0.004l0,0ZM12.161,12.168l-0.001,-0.001l0.001,0.001ZM3.214,12.149l-0.001,-0.003l0.001,0.003l0,0ZM12.152,12.142l-0.001,-0.003l0,0.001l0.001,0.002ZM3.207,12.128l0,-0.002l0,0.002ZM3.2,12.106l0,0l0,0ZM9.939,12.074l-0.001,0.007l0.001,-0.004l0,-0.003ZM9.946,12.053l-0.003,0.011l0,-0.002l0.003,-0.009ZM9.953,12.03l-0.004,0.012l0.003,-0.009l0.001,-0.003ZM9.959,12.009l-0.004,0.014l0.001,-0.005l0.003,-0.009ZM9.965,11.986l-0.005,0.019c0.002,-0.007 0.003,-0.013 0.005,-0.019ZM9.97,11.97l-0.004,0.012l0.003,-0.008l0.001,-0.004ZM9.976,11.946l-0.002,0.008l0.001,-0.006l0.001,-0.002ZM9.982,11.922l0,0.001l0,0l0,-0.001ZM9.989,11.895l0,0.002l0,0l0,-0.002ZM9.996,11.869l-0.001,0.003l0,-0.001l0.001,-0.002ZM10.001,11.844l0,0.002l0,-0.001l0,-0.001ZM3.11,11.763l0,0l0,0ZM3.106,11.742l0,-0.002l0,0.002ZM3.102,11.721l-0.001,-0.003l0.001,0.001l0,0.002ZM3.098,11.699l-0.001,-0.004l0,0.003l0.001,0.001ZM12.711,11.699l-0.006,-0.023l0.003,0.012l0.003,0.011ZM3.77,11.699l-0.005,-0.023l0.003,0.012l0.002,0.011ZM3.094,11.678l-0.001,-0.005l0,0.003l0.001,0.002ZM12.705,11.674l-0.005,-0.023c0.001,0.008 0.003,0.016 0.005,0.023ZM3.765,11.674l-0.005,-0.023c0.001,0.008 0.003,0.016 0.005,0.023ZM18.98,11.654l-0.001,0.005l0.001,-0.001l0,-0.004ZM18.314,11.634l-0.005,0.024c0.002,-0.008 0.003,-0.016 0.005,-0.024ZM9.374,11.634l-0.005,0.024c0.002,-0.008 0.003,-0.016 0.005,-0.024ZM3.09,11.657l-0.001,-0.007l0,0.004l0.001,0.003ZM12.699,11.648l-0.004,-0.019l0.001,0.007l0.003,0.012ZM3.759,11.648l-0.004,-0.019l0.001,0.007l0.003,0.012ZM3.086,11.636l-0.001,-0.008l0.001,0.004l0,0.004ZM18.985,11.627l-0.001,0.008l0,-0.004l0.001,-0.004ZM18.319,11.611l-0.005,0.022l0.003,-0.015l0.002,-0.007ZM9.379,11.611l-0.005,0.022l0.003,-0.015l0.002,-0.007ZM12.694,11.623l-0.005,-0.022c0.002,0.007 0.003,0.015 0.005,0.022ZM3.754,11.623l-0.005,-0.022c0.002,0.007 0.003,0.015 0.005,0.022ZM3.083,11.614l-0.002,-0.009l0.001,0.005l0.001,0.004ZM18.989,11.602l-0.001,0.007l0.001,-0.005l0,-0.002ZM18.32,11.606c0.001,-0.008 0.003,-0.015 0.004,-0.023c0,0 -0.004,0.023 -0.004,0.023ZM9.38,11.606c0.001,-0.008 0.003,-0.015 0.004,-0.023c0,0 -0.004,0.023 -0.004,0.023ZM3.079,11.593l-0.001,-0.01l0.001,0.005l0,0.005ZM12.686,11.585l-0.001,-0.006l0.001,0.004l0,0.002ZM3.746,11.585l-0.001,-0.006l0.001,0.004l0,0.002ZM3.076,11.571l-0.002,-0.01l0.001,0.005l0.001,0.005ZM12.683,11.568l-0.001,-0.006l0,0.004l0.001,0.002ZM3.743,11.568l-0.001,-0.006l0,0.004l0.001,0.002ZM18.328,11.562l-0.001,0.005l0.001,-0.001l0,-0.004ZM9.388,11.562l-0.001,0.005l0.001,-0.001l0,-0.004ZM18.997,11.55l-0.001,0.005l0,0l0.001,-0.005ZM12.68,11.552l-0.001,-0.007l0,0.003l0.001,0.004ZM3.74,11.552l-0.001,-0.007l0,0.003l0.001,0.004ZM18.331,11.544l-0.001,0.007l0.001,-0.003l0,-0.004ZM9.391,11.544l-0.001,0.007l0.001,-0.003l0,-0.004ZM3.073,11.55l-0.002,-0.01l0.001,0.004l0.001,0.006ZM3.737,11.535l-0.001,-0.006l0,0.001l0.001,0.005ZM12.677,11.535l-0.001,-0.006l0,0.001l0.001,0.005ZM18.334,11.528l-0.001,0.006l0.001,-0.004l0,-0.002ZM9.394,11.528l-0.001,0.006l0.001,-0.004l0,-0.002ZM19,11.527l0,0.006l0,0l0,-0.006ZM3.069,11.524l-0.001,-0.008l0,0.003l0.001,0.005ZM18.337,11.511l-0.001,0.006l0.001,-0.005l0,-0.001ZM9.397,11.511l-0.001,0.006l0.001,-0.005l0,-0.001ZM3.733,11.514l0,-0.001l-0.001,-0.006l0.001,0.005l0,0.002ZM12.673,11.514l0,-0.001l-0.001,-0.006l0.001,0.005l0,0.002ZM19.003,11.506l0,0.005l0,0l0,-0.005ZM3.731,11.497l-0.002,-0.008l0.001,0.006l0.001,0.002ZM12.671,11.497l-0.002,-0.008l0.001,0.006l0.001,0.002ZM18.341,11.49l-0.001,0.005l0,0l0.001,-0.005ZM9.4,11.49l0,0.005l0,0l0,-0.005ZM3.065,11.493l0,0l0,0ZM19.006,11.484l-0.001,0.005l0,0l0.001,-0.005ZM3.728,11.481l-0.001,-0.008l0,0.004l0.001,0.004ZM12.668,11.481l-0.001,-0.008l0,0.004l0.001,0.004ZM18.343,11.472l-0.001,0.007l0.001,-0.002l0,-0.005ZM9.403,11.472l-0.001,0.007l0.001,-0.002l0,-0.005ZM19.009,11.462l-0.001,0.005l0,-0.001l0.001,-0.004ZM3.726,11.465l-0.002,-0.009l0.001,0.003l0.001,0.006ZM12.666,11.465l-0.002,-0.009l0.001,0.003l0.001,0.006ZM18.346,11.455l-0.001,0.008l0,-0.004l0.001,-0.004ZM9.406,11.455l-0.001,0.008l0,-0.004l0.001,-0.004ZM12.001,11.456l0,0l0,0ZM3.723,11.448l-0.001,-0.008l0,-0.003l0,0.004l0.001,0.007ZM12.663,11.448l-0.001,-0.008l0,-0.003l0,0.004l0.001,0.007ZM18.348,11.439l-0.001,0.007l0.001,-0.005l0,-0.002ZM9.408,11.439l-0.001,0.007l0.001,-0.005l0,-0.002ZM19.011,11.441l0,0.003l0,0l0,-0.003ZM9.41,11.422l0,0.006l0,-0.005l0,-0.001ZM18.35,11.422l0,0.006l0,-0.005l0,-0.001ZM3.72,11.425l-0.001,-0.008l0.001,0.006l0,0.002ZM12.66,11.425l-0.001,-0.008l0.001,0.006l0,0.002ZM19.014,11.419l-0.001,0.003l0,0l0.001,-0.003ZM11.996,11.416l-0.001,-0.009l0.001,0.005l0,0.004ZM3.718,11.409l-0.001,-0.009l0,0.005l0.001,0.004ZM12.658,11.409l-0.001,-0.009l0,0.005l0.001,0.004ZM18.353,11.401l-0.001,0.006l0.001,-0.002l0,-0.004ZM9.413,11.401l-0.001,0.006l0.001,-0.002l0,-0.004ZM19.016,11.396l0,0.004l0,0l0,-0.004ZM11.994,11.398l-0.001,-0.017c0,0.005 0.001,0.011 0.001,0.017ZM3.716,11.392l-0.001,-0.008l0,0.003l0.001,0.005ZM12.656,11.392l-0.001,-0.008l0,0.003l0.001,0.005ZM18.355,11.384l0,0.006l0,-0.003l0,-0.003ZM9.415,11.384l-0.001,0.006l0.001,-0.003l0,-0.003ZM19.018,11.374l0,0.004l0,-0.001l0,-0.003ZM3.714,11.374l-0.001,-0.006l0,0.001l0.001,0.005ZM12.654,11.374l-0.001,-0.006l0,0.001l0.001,0.005ZM11.992,11.374l-0.001,-0.014l0,0.007l0.001,0.007ZM18.357,11.367l0,0.006l0,-0.004l0,-0.002ZM9.417,11.367l0,0.006l0,-0.004l0,-0.002ZM19.02,11.351l0,0.004l0,0l0,-0.004ZM11.99,11.354l-0.002,-0.019c0.001,0.007 0.002,0.013 0.002,0.019ZM18.359,11.351l0,0.003l0,-0.003l0,0ZM9.419,11.351l0,0.003l0,-0.003l0,0ZM3.711,11.352l0,-0.002l0,0.002ZM12.651,11.352l0,-0.002l0,0.002ZM3.709,11.335l0,-0.004l0,0.002l0,0.002ZM12.649,11.335l0,-0.004l0,0.002l0,0.002ZM19.022,11.328l0,0.005l0,0l0,-0.005ZM11.988,11.331l-0.001,-0.014l0,0.006l0.001,0.008ZM3.707,11.317l0,-0.003l0,0.001l0,0.002ZM12.648,11.317l-0.001,-0.003l0,0.001l0.001,0.002ZM18.363,11.315l0,0l0,0l0,0ZM9.423,11.315l0,0l0,0l0,0ZM19.024,11.304l0,0.007l0,0l0,-0.007ZM11.986,11.305l-0.001,-0.011l0.001,0.005l0,0.006ZM3.706,11.298l0,-0.001l0,0.001ZM12.646,11.298l0,-0.001l0,0.001ZM19.026,11.28l-0.001,0.009l0,-0.001l0.001,-0.008ZM11.984,11.282l0,-0.011l0,0.004l0,0.007ZM19.027,11.254l0,0.012l0,0l0,-0.012ZM11.983,11.259l-0.001,-0.011l0,0.004l0.001,0.007ZM19.028,11.244l0,0l0.001,-0.023l-0.001,0.023ZM10.088,11.236l0,0.003l0,-0.001l0,-0.002ZM11.982,11.236l-0.001,-0.011l0,0.003l0.001,0.008ZM10.09,11.208l-0.001,0.006l0.001,-0.003l0,-0.003ZM11.98,11.213l0,-0.011l0,0.003l0,0.008ZM11.979,11.19l0,-0.012l0,0.003l0,0.009ZM10.091,11.181l0,0.008l0,-0.005l0,-0.003ZM11.979,11.167l-0.001,-0.012l0,0.002l0.001,0.01ZM10.092,11.156l0,0.007l0,-0.005l0,-0.002ZM11.978,11.145l-0.001,-0.013l0,0.002l0.001,0.011ZM10.093,11.11l0,0.021l0,-0.017l0,-0.004ZM11.977,11.123l0,-0.014l0,0.001l0,0.013ZM10.093,11.089l0,0.016l0,-0.008l0,-0.008ZM11.977,11.102c-0.001,-0.021 -0.001,-0.041 -0.001,-0.062l0,-0.006c0,0.023 0,0.045 0.001,0.068ZM10.093,11.083c0.001,-0.014 0.001,-0.028 0.001,-0.041l0,0.021l-0.001,0.02ZM10.094,11.022l0,0.015l0,-0.009l0,-0.006ZM11.976,11.018l0,-0.008l0,0.006l0,0.002ZM10.094,11.002l0,0.014l0,-0.005l0,-0.009ZM10.093,10.981l0,0.016l0,-0.004l0,-0.012ZM11.977,10.996l0,-0.008l0,0.004l0,0.004ZM10.093,10.958l0,0.02c0,-0.007 0,-0.013 0,-0.02ZM11.977,10.973l0,-0.007l0,0.002l0,0.005ZM10.092,10.939l0.001,0.017l-0.001,-0.014l0,-0.003ZM10.092,10.92l0,0.013l0,-0.008l0,-0.005ZM10.091,10.901l0,0.012l0,-0.006l0,-0.006ZM10.09,10.881l0.001,0.013l0,-0.004l-0.001,-0.009ZM10.09,10.875c0,-0.007 -0.001,-0.013 -0.001,-0.019c0,-0.006 -0.001,-0.012 -0.001,-0.018l0.001,0.018l0.001,0.019ZM3.706,10.783l0,0l0,0l0,0ZM12.646,10.783l0,0l0,0l0,0ZM3.707,10.766l0,-0.002l0,0.001l0,0.001ZM12.647,10.766l0,-0.002l0,0.001l0,0.001ZM18.363,10.764l0,0.001l0,0l0,-0.001ZM9.423,10.764l0,0.001l0,0l0,-0.001ZM18.361,10.746l0,0.002l0,-0.001l0,-0.001ZM9.421,10.746l0,0.002l0,-0.001l0,-0.001ZM11.989,10.737c-0.093,-0.014 -0.186,-0.026 -0.279,-0.037c0.093,0.011 0.186,0.023 0.279,0.037ZM3.711,10.729l0,-0.001l0,0.001l0,0ZM12.651,10.729l0,-0.001l0,0.001l0,0ZM10.079,10.714l0.03,-0.004l0.031,-0.004l-0.031,0.004l-0.03,0.004ZM3.713,10.712l0,-0.005l0,0.004l0,0.001ZM12.653,10.712l0,-0.005l0,0.004l0,0.001ZM18.357,10.709l0,0.002l0,0l0,-0.002ZM9.417,10.709l0,0.002l0,0l0,-0.002ZM10.14,10.706c0.092,-0.011 0.184,-0.02 0.276,-0.028c-0.092,0.008 -0.184,0.017 -0.276,0.028ZM11.691,10.698l0.009,0.001l-0.005,-0.001l-0.004,0ZM3.715,10.696l0,-0.006l0,0.003l0,0.003ZM12.655,10.696l0,-0.006l0,0.003l0,0.003ZM11.631,10.692l0.034,0.003l-0.029,-0.003l-0.005,0ZM18.354,10.689l0.001,0.005l0,-0.001l-0.001,-0.004ZM9.414,10.689l0.001,0.005l0,-0.001l-0.001,-0.004ZM11.595,10.688l0.026,0.003l-0.015,-0.002l-0.011,-0.001ZM11.557,10.685l0.028,0.002l-0.008,-0.001l-0.02,-0.001ZM11.515,10.681l0.035,0.003c-0.012,-0.001 -0.024,-0.002 -0.035,-0.003ZM11.479,10.678l0.031,0.002l-0.022,-0.001l-0.009,-0.001ZM3.717,10.678l0.001,-0.005l-0.001,0.002l0,0.003ZM12.657,10.678l0.001,-0.005l-0.001,0.002l0,0.003ZM10.421,10.678l0.031,-0.002l-0.01,0l-0.021,0.002ZM18.352,10.672l0.001,0.006l0,-0.003l-0.001,-0.003ZM9.412,10.672l0.001,0.006l0,-0.003l-0.001,-0.003ZM11.442,10.675l0.029,0.002l-0.013,-0.001l-0.016,-0.001ZM10.463,10.675l0.024,-0.002l-0.015,0.001l-0.009,0.001ZM11.435,10.675c-0.024,-0.002 -0.048,-0.004 -0.071,-0.005l0.036,0.002l0.035,0.003ZM10.498,10.672l0.034,-0.002l-0.03,0.002l-0.004,0ZM10.532,10.67l0.035,-0.002c-0.012,0.001 -0.023,0.001 -0.035,0.002ZM11.328,10.668l0.029,0.001l-0.017,-0.001l-0.012,0ZM10.576,10.667l0.026,-0.001l-0.009,0.001l-0.017,0ZM11.289,10.666l0.031,0.001l-0.01,0l-0.021,-0.001ZM10.612,10.666l0.027,-0.002l-0.016,0.001l-0.011,0.001ZM11.248,10.664l0.036,0.001c-0.012,0 -0.024,-0.001 -0.036,-0.001ZM10.647,10.664l0.035,-0.002l0.036,-0.001c-0.024,0.001 -0.047,0.002 -0.071,0.003ZM11.213,10.662l0.032,0.001l-0.024,-0.001l-0.008,0ZM11.177,10.661l0.027,0.001l-0.013,-0.001l-0.014,0ZM10.724,10.661l0.029,-0.001l-0.01,0l-0.019,0.001ZM11.136,10.66l0.032,0.001l-0.007,-0.001l-0.025,0ZM18.35,10.655l0.001,0.005l-0.001,-0.003l0,-0.002ZM9.41,10.655l0.001,0.005l-0.001,-0.003l0,-0.002ZM10.761,10.66l0.029,-0.001l-0.017,0l-0.012,0.001ZM11.098,10.659l0.035,0c-0.012,0 -0.024,0 -0.035,0ZM10.797,10.659l0.035,-0.001l0.035,-0.001c-0.023,0.001 -0.047,0.001 -0.07,0.002ZM11.063,10.658l0.025,0l-0.016,0l-0.009,0ZM11.027,10.657l0.024,0.001l-0.009,0l-0.015,-0.001ZM10.875,10.657l0.027,0l-0.009,0l-0.018,0ZM11.016,10.657c-0.023,0 -0.046,0 -0.069,0l0.035,0l0.034,0ZM10.912,10.657l0.026,0l-0.015,0l-0.011,0ZM3.722,10.641l0.001,-0.006l-0.001,0.004l0,0.002ZM12.662,10.641l0.001,-0.006l-0.001,0.004l0,0.002ZM12.664,10.625l0.001,-0.007l0,0.003l-0.001,0.004ZM3.724,10.625l0.001,-0.007l0,0.003l-0.001,0.004ZM18.345,10.617l0.001,0.006l-0.001,-0.002l0,-0.004ZM9.405,10.617l0,0.006l0,-0.002l0,-0.004ZM12.667,10.609l0.001,-0.007l0.001,-0.011l-0.002,0.012l0,0.006ZM3.727,10.609l0.001,-0.007l0.001,-0.011l-0.002,0.012l0,0.006ZM18.342,10.6l0.001,0.007l0,-0.004l-0.001,-0.003ZM9.402,10.6l0.001,0.007l0,-0.004l-0.001,-0.003ZM9.401,10.591l-0.001,-0.006l-0.002,-0.011l0.002,0.01l0.001,0.007ZM18.341,10.591l-0.001,-0.006l-0.002,-0.011l0.002,0.01l0.001,0.007ZM12.67,10.588l0.002,-0.011l-0.002,0.008l0,0.003ZM3.73,10.588l0.002,-0.011l-0.002,0.008l0,0.003ZM12.672,10.574c0.038,-0.232 0.105,-0.459 0.198,-0.674c-0.092,0.212 -0.159,0.438 -0.198,0.674ZM3.732,10.574c0.038,-0.232 0.105,-0.459 0.198,-0.674c-0.092,0.212 -0.159,0.438 -0.198,0.674ZM9.395,10.559l0.002,0.011l0,-0.002l-0.002,-0.009ZM18.335,10.559l0.002,0.011l0,-0.002l-0.002,-0.009ZM9.395,10.556c-0.04,-0.235 -0.109,-0.46 -0.202,-0.672c0.095,0.214 0.162,0.441 0.202,0.672ZM18.335,10.556c-0.04,-0.235 -0.109,-0.46 -0.202,-0.672c0.095,0.214 0.163,0.441 0.202,0.672ZM3.93,9.9c0.005,-0.012 0.01,-0.023 0.015,-0.034c-0.005,0.011 -0.01,0.022 -0.015,0.034ZM12.87,9.9c0.005,-0.012 0.01,-0.023 0.015,-0.034c-0.005,0.011 -0.01,0.022 -0.015,0.034ZM18.127,9.871l0.006,0.013l-0.004,-0.009l-0.002,-0.004ZM9.187,9.871l0.006,0.013l-0.004,-0.009l-0.002,-0.004ZM18.127,9.871l-0.005,-0.012l-0.004,-0.008l0.004,0.008l0.005,0.012ZM9.187,9.871l-0.005,-0.012l-0.004,-0.008l0.004,0.008l0.005,0.012ZM3.947,9.861l0.003,-0.007l-0.002,0.005l-0.001,0.002ZM12.887,9.861l0.003,-0.007l-0.002,0.005l-0.001,0.002ZM12.894,9.846l0.003,-0.006l-0.002,0.003l-0.001,0.003ZM3.954,9.846l0.003,-0.006l-0.002,0.003l-0.001,0.003ZM9.172,9.838l0.004,0.007l-0.001,-0.002l-0.003,-0.005ZM18.112,9.838l0.004,0.007l-0.001,-0.002l-0.003,-0.005ZM3.961,9.831l0.002,-0.005l0,0.001l-0.002,0.004ZM12.901,9.831l0.002,-0.005l0,0.001l-0.002,0.004ZM9.166,9.824l0.003,0.006l-0.002,-0.003l-0.001,-0.003ZM18.106,9.824l0.003,0.006l-0.002,-0.003l-0.001,-0.003ZM18.099,9.81l0.003,0.005l-0.002,-0.003l-0.001,-0.002ZM9.159,9.81l0.003,0.005l-0.002,-0.003l-0.001,-0.002ZM3.977,9.797l0.003,-0.006l-0.002,0.005l-0.001,0.001ZM12.917,9.797l0.003,-0.006l-0.002,0.005l-0.001,0.001ZM12.924,9.782l0.004,-0.008l-0.003,0.006l-0.001,0.002ZM3.984,9.782l0.004,-0.008l-0.003,0.006l-0.001,0.002ZM18.082,9.775l0.003,0.006l0,-0.001l-0.003,-0.005ZM9.142,9.775l0.003,0.006l0,-0.001l-0.003,-0.005ZM12.932,9.767l0.004,-0.009l-0.003,0.007l-0.001,0.002ZM3.992,9.767l0.004,-0.009l-0.003,0.007l-0.001,0.002ZM18.074,9.758l0.004,0.008l-0.001,-0.001l-0.003,-0.007ZM9.134,9.758l0.004,0.008l-0.001,-0.001l-0.003,-0.007ZM12.939,9.753l0.005,-0.01l-0.003,0.006l-0.002,0.004ZM3.999,9.753l0.005,-0.01l-0.003,0.006l-0.002,0.004ZM9.125,9.742l0.005,0.009l-0.001,-0.002l-0.004,-0.007ZM18.066,9.742l0.004,0.009l-0.001,-0.002l-0.003,-0.007ZM12.946,9.739l0.006,-0.012l-0.003,0.007l-0.003,0.005ZM4.006,9.739l0.006,-0.012l-0.003,0.007l-0.003,0.005ZM9.117,9.726l0.006,0.011l-0.002,-0.003l-0.004,-0.008ZM18.057,9.726l0.006,0.011l-0.002,-0.003l-0.004,-0.008ZM12.953,9.725c0.124,-0.24 0.283,-0.463 0.469,-0.659c-0.186,0.196 -0.344,0.417 -0.469,0.659ZM4.013,9.725c0.124,-0.24 0.283,-0.463 0.469,-0.659c-0.186,0.196 -0.344,0.417 -0.469,0.659ZM18.049,9.71l0.007,0.012l-0.003,-0.004l-0.004,-0.008ZM9.109,9.71l0.007,0.012l-0.003,-0.004l-0.004,-0.008ZM18.778,9.72l0.914,0l-0.914,0c0,0 0,0 0,0ZM2.388,9.72l0.904,0l-0.904,0ZM18.048,9.708c-0.131,-0.249 -0.298,-0.477 -0.493,-0.677c0.196,0.2 0.363,0.429 0.493,0.677ZM9.108,9.708c-0.131,-0.249 -0.298,-0.477 -0.493,-0.677c0.196,0.2 0.363,0.429 0.493,0.677ZM12.273,9.623c-0.011,-0.002 -0.021,-0.004 -0.031,-0.006l0.031,0.006ZM12.202,9.61l0.02,0.004l-0.01,-0.002l-0.01,-0.002ZM9.774,9.572c0.013,-0.002 0.025,-0.004 0.038,-0.006c0,0 -0.019,0.003 -0.019,0.003l-0.019,0.003ZM3.357,9.57l0.002,-0.006l-0.002,0.005l0,0.001ZM11.835,9.552l0.02,0.003l-0.014,-0.002l-0.006,-0.001ZM3.364,9.554l0.003,-0.006l-0.002,0.004l-0.001,0.002ZM11.822,9.55c-0.011,-0.001 -0.023,-0.003 -0.034,-0.004c-0.012,-0.002 -0.024,-0.003 -0.036,-0.005l0.036,0.005l0.034,0.004ZM11.71,9.536l0.034,0.004c-0.011,-0.001 -0.023,-0.003 -0.034,-0.004ZM3.371,9.538l0.003,-0.006l-0.001,0.004l-0.002,0.002ZM11.673,9.532l0.03,0.003l-0.016,-0.002l-0.014,-0.001ZM11.631,9.527l0.034,0.004c-0.011,-0.002 -0.022,-0.003 -0.034,-0.004ZM11.593,9.523l0.029,0.003l-0.011,-0.001l-0.018,-0.002ZM11.553,9.519l0.034,0.003c-0.011,-0.001 -0.023,-0.002 -0.034,-0.003ZM3.379,9.522l0.003,-0.006l-0.002,0.003l-0.001,0.003ZM10.163,9.519l0.018,-0.002l-0.007,0.001l-0.011,0.001ZM11.51,9.515l0.033,0.003l-0.008,-0.001l-0.025,-0.002ZM10.194,9.516l0.032,-0.003l0.034,-0.004c-0.011,0.001 -0.023,0.002 -0.034,0.004c-0.011,0.001 -0.021,0.002 -0.032,0.003ZM11.475,9.512l0.028,0.002l-0.018,-0.002l-0.01,0ZM11.432,9.508l0.032,0.003c-0.011,-0.001 -0.021,-0.002 -0.032,-0.003ZM10.267,9.509l0.033,-0.003c-0.011,0.001 -0.022,0.002 -0.033,0.003ZM11.397,9.505l0.025,0.002l-0.013,-0.001l-0.012,-0.001ZM3.387,9.506l0.003,-0.006l-0.002,0.003l-0.001,0.003ZM10.307,9.505l0.029,-0.002l-0.016,0.001l-0.013,0.001ZM11.354,9.502l0.032,0.002c-0.011,-0.001 -0.021,-0.001 -0.032,-0.002ZM10.342,9.503l0.032,-0.003c-0.011,0.001 -0.021,0.002 -0.032,0.003ZM11.317,9.499l0.026,0.002l-0.01,-0.001l-0.016,-0.001ZM10.383,9.5l0.031,-0.003c-0.01,0.001 -0.02,0.002 -0.031,0.003ZM12.33,9.499l0.002,-0.003l-0.001,0.001l-0.001,0.002ZM11.276,9.497l0.032,0.002c-0.011,-0.001 -0.021,-0.002 -0.032,-0.002ZM10.423,9.497l0.025,-0.002l-0.011,0.001l-0.014,0.001ZM11.236,9.494l0.029,0.002l-0.009,0l-0.02,-0.002ZM10.458,9.495l0.03,-0.002c-0.01,0.001 -0.02,0.001 -0.03,0.002ZM11.198,9.492l0.031,0.002l-0.023,-0.001l-0.008,-0.001ZM10.5,9.492l0.026,-0.001l-0.019,0.001l-0.007,0ZM11.154,9.49l0.033,0.002c-0.011,-0.001 -0.022,-0.001 -0.033,-0.002ZM10.539,9.491l0.024,-0.001l-0.009,0l-0.015,0.001ZM3.394,9.49l0.003,-0.006l-0.001,0.002l-0.002,0.004ZM11.119,9.489l0.03,0.001l-0.02,-0.001l-0.01,0ZM10.575,9.489l0.029,-0.001c-0.01,0 -0.019,0.001 -0.029,0.001ZM11.076,9.487l0.034,0.001c-0.011,0 -0.022,0 -0.034,-0.001ZM10.616,9.487l0.024,0l-0.015,0l-0.009,0ZM11.04,9.486l0.03,0.001l-0.017,0l-0.013,-0.001ZM10.653,9.486l0.026,0l-0.007,0l-0.019,0ZM10.999,9.485l0.034,0.001c-0.012,0 -0.023,-0.001 -0.034,-0.001ZM10.691,9.485l0.03,0c-0.01,0 -0.02,0 -0.03,0ZM10.961,9.484l0.031,0.001l-0.015,0l-0.016,-0.001ZM10.731,9.484l0.026,0l-0.015,0l-0.011,0ZM10.922,9.484l0.034,0c-0.011,0 -0.023,0 -0.034,0ZM10.765,9.484l0.032,0c-0.011,0 -0.021,0 -0.032,0ZM10.881,9.484l0.034,0c-0.012,0 -0.023,0 -0.034,0ZM10.807,9.484l0.031,-0.001c-0.01,0.001 -0.021,0.001 -0.031,0.001ZM10.846,9.483l0.029,0.001l-0.015,-0.001l-0.014,0ZM18.669,9.476l0.002,0.005l0,-0.001l-0.002,-0.004ZM12.342,9.474l0.002,-0.004l-0.001,0.002l-0.001,0.002ZM3.403,9.474l0.002,-0.005l-0.001,0.001l-0.001,0.004ZM18.661,9.46l0.003,0.006l-0.001,-0.002l-0.002,-0.004ZM18.653,9.444l0.003,0.006l-0.002,-0.002l-0.001,-0.004ZM12.355,9.449l0.002,-0.004l-0.001,0.002l-0.001,0.002ZM3.421,9.438l0.002,-0.005l-0.002,0.004l0,0.001ZM18.645,9.428l0.003,0.007l-0.002,-0.003l-0.001,-0.004ZM12.368,9.423l0,0l0,0l0,0ZM3.429,9.422l0.002,-0.005l-0.002,0.004l0,0.001ZM18.637,9.413l0.003,0.006l-0.002,-0.004l-0.001,-0.002ZM9.693,9.406l0.002,0.003l-0.002,-0.002l0,-0.001ZM3.437,9.407l0.003,-0.006l-0.002,0.004l-0.001,0.002ZM18.628,9.397l0.003,0.006l-0.002,-0.004l-0.001,-0.002ZM12.38,9.4l0.002,-0.003l-0.001,0.001l-0.001,0.002ZM3.445,9.391l0.003,-0.006l-0.002,0.003l-0.001,0.003ZM18.62,9.382l0.003,0.005l-0.002,-0.004l-0.001,-0.001ZM9.68,9.381l0.002,0.004l-0.001,-0.002l-0.001,-0.002ZM3.453,9.376l0.003,-0.006l-0.001,0.002l-0.002,0.004ZM12.393,9.376l0.002,-0.004l-0.001,0.002l-0.001,0.002ZM3.461,9.36l0.004,-0.006l-0.001,0.002l-0.003,0.004ZM9.667,9.357l0.001,0.003l0,-0.001l-0.001,-0.002ZM18.601,9.347l0.003,0.005l-0.001,-0.001l-0.002,-0.004ZM12.407,9.35l0.002,-0.003l-0.002,0.002l0,0.001ZM3.47,9.344l0.003,-0.005l-0.001,0.001l-0.002,0.004ZM18.592,9.331l0.003,0.005l0,-0.001l-0.003,-0.004ZM9.655,9.335l0,0l0,0l0,0ZM18.584,9.315l0.003,0.006l-0.001,-0.002l-0.002,-0.004ZM9.641,9.31l0.001,0.003l-0.001,-0.002l0,-0.001ZM12.43,9.309l0.003,-0.005l-0.002,0.003l-0.001,0.002ZM18.575,9.3l0.003,0.006l-0.001,-0.003l-0.002,-0.003ZM3.494,9.302l0.002,-0.004l-0.001,0.001l-0.001,0.003ZM12.44,9.292l0.002,-0.005l-0.001,0.002l-0.001,0.003ZM18.566,9.285l0.004,0.006l-0.002,-0.004l-0.002,-0.002ZM9.627,9.286l0.002,0.003l-0.001,-0.002l-0.001,-0.001ZM3.508,9.277l0.002,-0.004l-0.001,0.002l-0.001,0.002ZM18.558,9.27l0.003,0.005l-0.002,-0.004l-0.001,-0.001ZM12.451,9.272l0.001,-0.001l0,0l-0.001,0.001ZM9.613,9.262l0.002,0.003l-0.001,-0.001l-0.001,-0.002ZM18.549,9.255l0.003,0.005l-0.003,-0.004l0,-0.001ZM12.461,9.254l0.002,-0.003l-0.001,0.002l-0.001,0.001ZM3.523,9.251l0.001,-0.001l0,0.001l-0.001,0ZM12.471,9.238l0.003,-0.004l-0.001,0.002l-0.002,0.002ZM9.588,9.22l0.003,0.004l-0.001,-0.002l-0.002,-0.002ZM12.483,9.219l0,-0.001l0,0l0,0.001ZM18.525,9.215l0.002,0.003l-0.001,-0.002l-0.001,-0.001ZM9.578,9.203l0.002,0.004l-0.001,-0.002l-0.001,-0.002ZM12.494,9.2l0,0l0,0l0,0ZM18.51,9.19l0.002,0.003l-0.001,-0.001l-0.001,-0.002ZM12.504,9.184l0.001,-0.003l0,0.002l-0.001,0.001ZM9.555,9.167l0.003,0.004l-0.001,-0.002l-0.002,-0.002ZM18.495,9.167l0.001,0.001l0,0l-0.001,-0.001ZM12.516,9.165l0,0l0,0l0,0ZM9.545,9.151l0.002,0.002l-0.001,-0.001l-0.001,-0.001ZM12.538,9.13l0,0l0,0l0,0ZM9.522,9.115l0.002,0.002l-0.001,-0.001l-0.001,-0.001ZM9.511,9.099l0.001,0.001l0,-0.001l-0.001,0ZM13.422,9.066l0.01,-0.011l-0.005,0.005l-0.005,0.006ZM4.482,9.066l0.01,-0.011l-0.005,0.005l-0.005,0.006ZM9.488,9.064l0.001,0.001l0,-0.001l-0.001,0ZM13.434,9.053l0.009,-0.009l-0.004,0.003l-0.005,0.006ZM4.494,9.053l0.009,-0.009l-0.004,0.003l-0.005,0.006ZM13.446,9.041l0.008,-0.009l-0.003,0.003l-0.005,0.006ZM4.506,9.041l0.008,-0.009l-0.003,0.003l-0.005,0.006ZM8.604,9.02l0.01,0.01l-0.007,-0.007l-0.003,-0.003ZM17.544,9.02l0.01,0.01l-0.007,-0.007l-0.003,-0.003ZM4.518,9.028l0.007,-0.007l-0.002,0.002l-0.005,0.005ZM13.458,9.028l0.007,-0.007l-0.002,0.002l-0.005,0.005ZM17.532,9.008l0.009,0.009l-0.007,-0.006l-0.002,-0.003ZM8.592,9.008l0.009,0.009l-0.007,-0.006l-0.002,-0.003ZM4.53,9.016l0.007,-0.007l-0.002,0.002l-0.005,0.005ZM13.47,9.016l0.007,-0.007l-0.001,0.002l-0.006,0.005ZM8.581,8.997l0.008,0.008l-0.007,-0.007l-0.001,-0.001ZM17.521,8.997l0.008,0.008l-0.007,-0.007l-0.001,-0.001ZM4.543,9.003l0.005,-0.005l0,0l-0.005,0.005ZM13.484,9.003l0.004,-0.005l0,0l-0.004,0.005ZM17.509,8.985l0.007,0.007l-0.006,-0.006l-0.001,-0.001ZM8.569,8.985l0.007,0.007l-0.006,-0.006l-0.001,-0.001ZM17.497,8.974l0.005,0.005l-0.004,-0.005l-0.001,0ZM8.557,8.974l0.005,0.005l-0.004,-0.005l-0.001,0ZM4.572,8.975l0.005,-0.005l-0.005,0.004l0,0.001ZM13.512,8.975l0.005,-0.005l-0.005,0.004l0,0.001ZM4.584,8.963l0.006,-0.006l-0.005,0.005l-0.001,0.001ZM13.524,8.963l0.006,-0.006l-0.005,0.005l-0.001,0.001ZM12.655,8.96l0,0l0,0l0,0ZM4.597,8.951l0.006,-0.006l-0.006,0.006l0,0ZM13.537,8.951l0.006,-0.006l-0.006,0.006l0,0ZM17.468,8.946l0.005,0.005l0,0l-0.005,-0.005ZM8.528,8.946l0.005,0.005l0,0l-0.005,-0.005ZM4.609,8.94l0.007,-0.007l-0.006,0.006l-0.001,0.001ZM13.549,8.94l0.007,-0.007l-0.006,0.006l-0.001,0.001ZM17.455,8.934l0.006,0.005l-0.001,0l-0.005,-0.005ZM8.515,8.934l0.005,0.005l0,0l-0.005,-0.005ZM4.621,8.928l0.008,-0.007l-0.007,0.006l-0.001,0.001ZM13.561,8.928l0.008,-0.007l-0.006,0.006l-0.002,0.001ZM17.441,8.922l0.007,0.006l-0.001,-0.001l-0.006,-0.005ZM8.501,8.922l0.007,0.006l-0.001,-0.001l-0.006,-0.005ZM4.634,8.917l0.008,-0.007l-0.007,0.005l-0.001,0.002ZM13.574,8.917l0.008,-0.007l-0.007,0.005l-0.001,0.002ZM17.428,8.91l0.008,0.006l-0.001,-0.001l-0.007,-0.005ZM8.488,8.91l0.008,0.006l-0.001,-0.001l-0.007,-0.005ZM9.379,8.912l0,0l0,0l0,0ZM12.691,8.911l0.002,-0.002l-0.001,0.001l-0.001,0.001ZM4.646,8.906l0.008,-0.008l-0.006,0.006l-0.002,0.002ZM13.586,8.906l0.008,-0.008l-0.006,0.006l-0.002,0.002ZM8.475,8.898l0.008,0.007l-0.001,-0.001l-0.007,-0.006ZM17.416,8.898l0.007,0.007l-0.001,-0.001l-0.006,-0.006ZM12.704,8.894l0.001,-0.001l0,0.001l-0.001,0ZM4.659,8.894l0.008,-0.007l-0.006,0.005l-0.002,0.002ZM13.599,8.894l0.008,-0.007l-0.006,0.005l-0.002,0.002ZM17.403,8.887l0.008,0.007l-0.002,-0.002l-0.006,-0.005ZM8.463,8.887l0.008,0.007l-0.002,-0.002l-0.006,-0.005ZM4.671,8.883l0.009,-0.007l-0.006,0.005l-0.003,0.002ZM13.611,8.883l0.009,-0.007l-0.006,0.005l-0.003,0.002ZM17.39,8.875l0.008,0.008l-0.002,-0.002l-0.006,-0.006ZM8.45,8.875l0.008,0.008l-0.002,-0.002l-0.006,-0.006ZM4.684,8.872l0.009,-0.008l-0.006,0.006l-0.003,0.002ZM13.624,8.872l0.009,-0.008l-0.006,0.006l-0.003,0.002ZM17.377,8.864l0.008,0.008l-0.002,-0.002l-0.006,-0.006ZM8.437,8.864l0.008,0.008l-0.002,-0.002l-0.006,-0.006ZM9.341,8.862l0,0.001l0,-0.001l0,0ZM12.729,8.863l0.002,-0.004l-0.001,0.002l-0.001,0.002ZM4.697,8.861l0.009,-0.008l-0.006,0.005l-0.003,0.003ZM13.637,8.861l0.009,-0.008l-0.006,0.005l-0.003,0.003ZM17.364,8.853l0.009,0.008l-0.003,-0.003l-0.006,-0.005ZM8.424,8.853l0.009,0.008l-0.003,-0.003l-0.006,-0.005ZM4.709,8.85l0.01,-0.008l-0.006,0.005l-0.004,0.003ZM13.649,8.85l0.01,-0.008l-0.006,0.005l-0.004,0.003ZM17.351,8.842l0.009,0.008l-0.003,-0.003l-0.006,-0.005ZM8.411,8.842l0.009,0.008l-0.003,-0.003l-0.006,-0.005ZM12.741,8.847l0.003,-0.003l-0.001,0.001l-0.002,0.002ZM4.722,8.839l0.01,-0.007l-0.006,0.004l-0.004,0.003ZM13.662,8.839l0.01,-0.007l-0.006,0.004l-0.004,0.003ZM17.338,8.831l0.009,0.008l-0.003,-0.003l-0.006,-0.005ZM8.398,8.831l0.009,0.008l-0.003,-0.003l-0.006,-0.005ZM9.315,8.829l0,0.001l0,0l0,-0.001ZM12.756,8.829l0,-0.001l0,0.001l0,0ZM4.735,8.829l0.01,-0.008l-0.006,0.004l-0.004,0.004ZM13.675,8.829l0.01,-0.008l-0.006,0.004l-0.004,0.004ZM17.325,8.82l0.009,0.008l-0.003,-0.003l-0.006,-0.005ZM8.385,8.82l0.009,0.008l-0.003,-0.003l-0.006,-0.005ZM4.748,8.818l0.01,-0.008l-0.005,0.004l-0.005,0.004ZM13.688,8.818l0.01,-0.008l-0.005,0.004l-0.005,0.004ZM17.312,8.81l0.009,0.007l-0.004,-0.003l-0.005,-0.004ZM8.371,8.81l0.01,0.007l-0.004,-0.003l-0.006,-0.004ZM9.301,8.812l0.002,0.003l-0.001,-0.002l-0.001,-0.001ZM12.767,8.814l0.004,-0.004l-0.002,0.003l-0.002,0.001ZM4.761,8.807l0.01,-0.007l-0.005,0.003l-0.005,0.004ZM13.701,8.807l0.01,-0.007l-0.005,0.003l-0.005,0.004ZM17.298,8.799l0.01,0.008l-0.004,-0.004l-0.006,-0.004ZM8.358,8.799l0.01,0.008l-0.004,-0.004l-0.006,-0.004ZM12.78,8.799l0.003,-0.004l-0.001,0.002l-0.002,0.002ZM4.774,8.797l0.01,-0.008l-0.004,0.004l-0.006,0.004ZM13.714,8.797l0.01,-0.008l-0.004,0.004l-0.006,0.004ZM17.285,8.789l0.01,0.007l-0.005,-0.003l-0.005,-0.004ZM8.345,8.789l0.01,0.007l-0.005,-0.003l-0.005,-0.004ZM4.788,8.786l0.009,-0.007l-0.004,0.003l-0.005,0.004ZM13.728,8.786l0.009,-0.007l-0.004,0.003l-0.005,0.004ZM17.272,8.778l0.01,0.008l-0.005,-0.004l-0.005,-0.004ZM8.332,8.778l0.01,0.008l-0.005,-0.004l-0.005,-0.004ZM9.274,8.78l0.002,0.002l-0.001,-0.001l-0.001,-0.001ZM4.801,8.776l0.01,-0.008l-0.004,0.003l-0.006,0.005ZM13.741,8.776l0.01,-0.008l-0.004,0.003l-0.006,0.005ZM17.259,8.768l0.009,0.007l-0.005,-0.004l-0.004,-0.003ZM8.319,8.768l0.009,0.007l-0.005,-0.004l-0.004,-0.003ZM9.261,8.764l0.003,0.003l-0.002,-0.002l-0.001,-0.001ZM12.807,8.766l0.004,-0.004l-0.002,0.003l-0.002,0.001ZM4.814,8.765l0.01,-0.007l-0.004,0.003l-0.006,0.004ZM13.754,8.765l0.01,-0.007l-0.004,0.003l-0.006,0.004ZM17.245,8.758l0.01,0.007l-0.005,-0.004l-0.005,-0.003ZM8.305,8.758l0.01,0.007l-0.005,-0.004l-0.005,-0.003ZM4.828,8.755l0.009,-0.007l-0.003,0.002l-0.006,0.005ZM13.768,8.755l0.009,-0.007l-0.003,0.002l-0.006,0.005ZM17.232,8.747l0.01,0.008l-0.006,-0.005l-0.004,-0.003ZM8.292,8.747l0.01,0.008l-0.006,-0.005l-0.004,-0.003ZM12.82,8.751l0.003,-0.004l-0.001,0.002l-0.002,0.002ZM9.248,8.749l0.001,0.001l-0.001,-0.001l0,0ZM4.841,8.745l0.01,-0.007l-0.003,0.002l-0.007,0.005ZM13.781,8.745l0.01,-0.007l-0.003,0.002l-0.007,0.005ZM17.219,8.737l0.009,0.007l-0.006,-0.004l-0.003,-0.003ZM8.278,8.737l0.01,0.007l-0.006,-0.004l-0.004,-0.003ZM9.233,8.731l0.003,0.004l-0.001,-0.001l-0.002,-0.003ZM4.855,8.735l0.009,-0.007l-0.002,0.002l-0.007,0.005ZM13.795,8.735l0.009,-0.007l-0.002,0.002l-0.007,0.005ZM17.205,8.727l0.01,0.007l-0.007,-0.004l-0.003,-0.003ZM8.265,8.727l0.009,0.007l-0.006,-0.004l-0.003,-0.003ZM12.836,8.733l0,0l0,0l0,0ZM4.869,8.724l0.009,-0.006l-0.002,0.001l-0.007,0.005ZM13.809,8.724l0.009,-0.006l-0.002,0.001l-0.007,0.005ZM17.191,8.717l0.01,0.007l-0.007,-0.005l-0.003,-0.002ZM8.251,8.717l0.01,0.007l-0.007,-0.005l-0.003,-0.002ZM9.22,8.716l0.003,0.004l-0.002,-0.002l-0.001,-0.002ZM12.849,8.718l0.003,-0.003l-0.002,0.002l-0.001,0.001ZM4.883,8.714l0.008,-0.006l-0.001,0.001l-0.007,0.005ZM13.823,8.714l0.008,-0.006l-0.001,0.001l-0.007,0.005ZM17.178,8.707l0.009,0.007l-0.007,-0.005l-0.002,-0.002ZM8.238,8.707l0.009,0.007l-0.007,-0.005l-0.002,-0.002ZM17.164,8.698l0.009,0.006l-0.007,-0.005l-0.002,-0.001ZM8.224,8.698l0.009,0.006l-0.007,-0.005l-0.002,-0.001ZM4.897,8.704l0.008,-0.006l-0.001,0.001l-0.007,0.005ZM13.837,8.704l0.008,-0.006l-0.001,0.001l-0.007,0.005ZM12.862,8.703l0.003,-0.003l-0.001,0.001l-0.002,0.002ZM17.15,8.688l0.009,0.006l-0.007,-0.005l-0.002,-0.001ZM8.21,8.688l0.009,0.006l-0.007,-0.005l-0.002,-0.001ZM4.911,8.694l0.008,-0.006l-0.001,0.001l-0.007,0.005ZM13.851,8.694l0.008,-0.006l-0.001,0.001l-0.007,0.005ZM9.191,8.684l0.004,0.004l-0.002,-0.002l-0.002,-0.002ZM17.137,8.678l0.008,0.006l-0.007,-0.005l-0.001,-0.001ZM8.197,8.678l0.008,0.006l-0.007,-0.005l-0.001,-0.001ZM4.925,8.684l0.008,-0.005l-0.001,0l-0.007,0.005ZM13.865,8.684l0.008,-0.005l-0.001,0l-0.007,0.005ZM17.123,8.669l0.008,0.005l-0.007,-0.004l-0.001,-0.001ZM8.183,8.669l0.008,0.005l-0.007,-0.004l-0.001,-0.001ZM4.94,8.674l0.007,-0.005l-0.001,0.001l-0.006,0.004ZM13.88,8.674l0.007,-0.005l-0.001,0.001l-0.006,0.004ZM9.178,8.669l0.003,0.004l-0.002,-0.002l-0.001,-0.002ZM12.891,8.67l0.002,-0.002l-0.001,0.001l-0.001,0.001ZM17.109,8.659l0.007,0.005l-0.006,-0.004l-0.001,-0.001ZM8.169,8.659l0.007,0.005l-0.007,-0.004l0,-0.001ZM4.955,8.663l0.006,-0.003l-0.001,0l-0.005,0.003ZM13.895,8.663l0.006,-0.003l-0.001,0l-0.005,0.003ZM3.959,8.662l0.001,-0.001l-0.001,0l0,0.001ZM9.163,8.653l0.002,0.002l0,0l-0.002,-0.002ZM12.906,8.655l0.001,-0.001l-0.001,0l0,0.001ZM17.095,8.65l0.006,0.004l-0.006,-0.004l0,0ZM8.155,8.65l0.006,0.004l-0.006,-0.004l0,0ZM17.081,8.641l0.005,0.003l-0.005,-0.003l0,0ZM8.14,8.641l0.006,0.003l-0.005,-0.003l-0.001,0ZM3.977,8.642l0.003,-0.003l-0.001,0.001l-0.002,0.002ZM9.149,8.638l0.003,0.003l-0.002,-0.002l-0.001,-0.001ZM4.989,8.641l0.006,-0.004l-0.006,0.004l0,0ZM13.929,8.641l0.006,-0.004l-0.006,0.004l0,0ZM5.003,8.632l0.008,-0.005l-0.007,0.004l-0.001,0.001ZM13.943,8.632l0.008,-0.005l-0.007,0.004l-0.001,0.001ZM9.135,8.623l0.001,0.001l0,0l-0.001,-0.001ZM12.934,8.623l0.002,-0.001l-0.001,0.001l-0.001,0ZM13.957,8.622l0.009,-0.005l-0.008,0.005l-0.001,0ZM5.017,8.622l0.009,-0.005l-0.008,0.005l-0.001,0ZM17.046,8.618l0.006,0.004l0,0l-0.006,-0.004ZM8.106,8.618l0.006,0.004l0,0l-0.006,-0.004ZM3.997,8.621l0.002,-0.003l-0.001,0.002l-0.001,0.001ZM5.032,8.613l0.009,-0.006l-0.008,0.006l-0.001,0ZM13.972,8.613l0.009,-0.006l-0.008,0.006l-0.001,0ZM17.03,8.608l0.008,0.005l-0.001,0l-0.007,-0.005ZM8.09,8.608l0.008,0.005l-0.001,0l-0.007,-0.005ZM9.12,8.607l0.002,0.002l-0.001,-0.001l-0.001,-0.001ZM5.046,8.604l0.01,-0.006l-0.009,0.005l-0.001,0.001ZM13.986,8.604l0.01,-0.006l-0.009,0.005l-0.001,0.001ZM8.075,8.598l0.008,0.006l-0.001,-0.001l-0.007,-0.005ZM17.015,8.598l0.008,0.006l0,-0.001l-0.008,-0.005ZM5.06,8.595l0.011,-0.006l-0.009,0.005l-0.002,0.001ZM14,8.595l0.011,-0.006l-0.009,0.005l-0.002,0.001ZM8.059,8.589l0.01,0.006l-0.001,-0.001l-0.009,-0.005ZM16.999,8.589l0.01,0.006l-0.001,-0.001l-0.009,-0.005ZM9.106,8.592l0.001,0.002l-0.001,-0.001l0,-0.001ZM18.044,8.59l0.001,0.002l-0.001,-0.001l0,-0.001ZM5.075,8.586l0.011,-0.006l-0.009,0.005l-0.002,0.001ZM14.015,8.586l0.011,-0.006l-0.009,0.005l-0.002,0.001ZM4.03,8.586l0.004,-0.004l-0.003,0.003l-0.001,0.001ZM8.044,8.58l0.01,0.006l-0.001,-0.001l-0.009,-0.005ZM16.984,8.58l0.01,0.006l-0.001,-0.001l-0.009,-0.005ZM14.029,8.578l0.011,-0.007l-0.008,0.005l-0.003,0.002ZM5.089,8.578l0.011,-0.007l-0.008,0.005l-0.003,0.002ZM12.979,8.577l0,0l0,0l0,0ZM16.969,8.571l0.011,0.006l-0.002,-0.001l-0.009,-0.005ZM8.029,8.571l0.011,0.006l-0.002,-0.001l-0.009,-0.005ZM4.043,8.573l0.004,-0.004l-0.003,0.002l-0.001,0.002ZM18.023,8.569l0.003,0.003l-0.001,-0.002l-0.002,-0.001ZM14.044,8.569l0.011,-0.007l-0.008,0.005l-0.003,0.002ZM5.104,8.569l0.011,-0.007l-0.008,0.005l-0.003,0.002ZM8.014,8.562l0.011,0.007l-0.002,-0.002l-0.009,-0.005ZM16.954,8.562l0.012,0.007l-0.003,-0.002l-0.009,-0.005ZM9.076,8.562l0.001,0.001l0,-0.001l-0.001,0ZM5.118,8.561l0.012,-0.007l-0.008,0.005l-0.004,0.002ZM14.058,8.561l0.012,-0.007l-0.008,0.005l-0.004,0.002ZM7.999,8.553l0.012,0.007l-0.003,-0.001l-0.009,-0.006ZM16.939,8.553l0.012,0.007l-0.003,-0.001l-0.009,-0.006ZM4.056,8.559l0.003,-0.003l-0.001,0.001l-0.002,0.002ZM5.133,8.552l0.012,-0.007l-0.008,0.005l-0.004,0.002ZM14.073,8.552l0.012,-0.007l-0.008,0.005l-0.004,0.002ZM7.985,8.545l0.011,0.007l-0.003,-0.002l-0.008,-0.005ZM16.925,8.545l0.011,0.007l-0.003,-0.002l-0.008,-0.005ZM18.003,8.549l0.003,0.002l-0.001,-0.001l-0.002,-0.001ZM5.147,8.544l0.013,-0.007l-0.008,0.004l-0.005,0.003ZM14.087,8.544l0.013,-0.007l-0.008,0.004l-0.005,0.003ZM7.97,8.536l0.012,0.007l-0.004,-0.002l-0.008,-0.005ZM16.91,8.536l0.012,0.007l-0.004,-0.002l-0.008,-0.005ZM14.102,8.535l0.012,-0.007l-0.007,0.005l-0.005,0.002ZM5.162,8.535l0.012,-0.007l-0.007,0.005l-0.005,0.002ZM7.955,8.528l0.012,0.007l-0.004,-0.002l-0.008,-0.005ZM16.895,8.528l0.012,0.007l-0.004,-0.002l-0.008,-0.005ZM13.023,8.532l0,0l0,0l0,0ZM5.177,8.527l0.012,-0.007l-0.007,0.004l-0.005,0.003ZM14.117,8.527l0.012,-0.007l-0.007,0.004l-0.005,0.003ZM16.88,8.52l0.012,0.007l-0.004,-0.003l-0.008,-0.004ZM7.94,8.52l0.012,0.007l-0.004,-0.003l-0.008,-0.004ZM5.192,8.519l0.012,-0.007l-0.007,0.004l-0.005,0.003ZM14.132,8.519l0.012,-0.007l-0.007,0.004l-0.005,0.003ZM16.865,8.512l0.013,0.007l-0.005,-0.003l-0.008,-0.004ZM7.925,8.512l0.013,0.007l-0.005,-0.003l-0.008,-0.004ZM17.968,8.514l0.004,0.004l-0.001,-0.001l-0.003,-0.003ZM9.031,8.517l0,0l0,0l0,0ZM5.206,8.511l0.013,-0.007l-0.007,0.004l-0.006,0.003ZM14.147,8.511l0.012,-0.007l-0.007,0.004l-0.005,0.003ZM16.85,8.504l0.013,0.007l-0.005,-0.003l-0.008,-0.004ZM7.91,8.504l0.013,0.007l-0.005,-0.003l-0.008,-0.004ZM17.955,8.501l0.004,0.004l-0.002,-0.002l-0.002,-0.002ZM5.221,8.503l0.013,-0.007l-0.006,0.004l-0.007,0.003ZM14.162,8.503l0.012,-0.007l-0.006,0.004l-0.006,0.003ZM7.895,8.496l0.013,0.007l-0.006,-0.003l-0.007,-0.004ZM16.835,8.496l0.013,0.007l-0.006,-0.003l-0.007,-0.004ZM5.236,8.495l0.013,-0.006l-0.006,0.003l-0.007,0.003ZM14.177,8.495l0.012,-0.006l-0.006,0.003l-0.006,0.003ZM16.82,8.488l0.013,0.007l-0.006,-0.003l-0.007,-0.004ZM7.88,8.488l0.013,0.007l-0.006,-0.003l-0.007,-0.004ZM17.942,8.489l0.003,0.003l-0.002,-0.002l-0.001,-0.001ZM13.068,8.488l0.001,0l0,0l-0.001,0ZM5.252,8.487l0.012,-0.006l-0.005,0.003l-0.007,0.003ZM14.192,8.487l0.012,-0.006l-0.005,0.003l-0.007,0.003ZM16.805,8.48l0.013,0.007l-0.007,-0.003l-0.006,-0.004ZM7.865,8.48l0.013,0.007l-0.007,-0.003l-0.006,-0.004ZM5.267,8.479l0.012,-0.006l-0.005,0.003l-0.007,0.003ZM14.207,8.479l0.012,-0.006l-0.005,0.003l-0.007,0.003ZM16.79,8.473l0.013,0.006l-0.007,-0.003l-0.006,-0.003ZM7.85,8.473l0.013,0.006l-0.007,-0.003l-0.006,-0.003ZM5.282,8.472l0.012,-0.006l-0.004,0.002l-0.008,0.004ZM14.222,8.472l0.012,-0.006l-0.004,0.002l-0.008,0.004ZM16.775,8.465l0.012,0.006l-0.007,-0.003l-0.005,-0.003ZM7.835,8.465l0.012,0.006l-0.007,-0.003l-0.005,-0.003ZM14.238,8.464l0.011,-0.006l-0.004,0.002l-0.007,0.004ZM5.297,8.464l0.012,-0.006l-0.004,0.002l-0.008,0.004ZM7.82,8.458l0.012,0.006l-0.007,-0.004l-0.005,-0.002ZM16.76,8.458l0.012,0.006l-0.007,-0.004l-0.005,-0.002ZM14.253,8.456l0.011,-0.005l-0.003,0.002l-0.008,0.003ZM5.313,8.456l0.011,-0.005l-0.003,0.002l-0.008,0.003ZM7.805,8.451l0.012,0.005l-0.008,-0.003l-0.004,-0.002ZM16.745,8.451l0.012,0.005l-0.008,-0.003l-0.004,-0.002ZM14.269,8.449l0.01,-0.005l-0.002,0.001l-0.008,0.004ZM5.329,8.449l0.01,-0.005l-0.002,0.001l-0.008,0.004ZM16.73,8.443l0.011,0.006l-0.008,-0.004l-0.003,-0.002ZM7.789,8.443l0.012,0.006l-0.008,-0.004l-0.004,-0.002ZM13.114,8.446l0.001,-0.002l0,0.001l-0.001,0.001ZM5.344,8.441l0.011,-0.004l-0.003,0.001l-0.008,0.003ZM14.284,8.441l0.011,-0.004l-0.003,0.001l-0.008,0.003ZM7.774,8.436l0.012,0.005l-0.008,-0.003l-0.004,-0.002ZM16.714,8.436l0.012,0.005l-0.008,-0.003l-0.004,-0.002ZM7.759,8.429l0.011,0.005l-0.008,-0.004l-0.003,-0.001ZM16.699,8.429l0.011,0.005l-0.008,-0.004l-0.003,-0.001ZM5.36,8.434l0.01,-0.005l-0.002,0.001l-0.008,0.004ZM14.3,8.434l0.01,-0.005l-0.002,0.001l-0.008,0.004ZM7.744,8.422l0.01,0.005l-0.008,-0.004l-0.002,-0.001ZM16.684,8.422l0.01,0.005l-0.008,-0.004l-0.002,-0.001ZM5.376,8.427l0.009,-0.005l-0.001,0.001l-0.008,0.004ZM14.316,8.427l0.01,-0.005l-0.002,0.001l-0.008,0.004ZM7.728,8.415l0.01,0.005l-0.008,-0.004l-0.002,-0.001ZM16.668,8.415l0.01,0.005l-0.008,-0.004l-0.002,-0.001ZM5.392,8.419l0.009,-0.004l-0.001,0.001l-0.008,0.003ZM14.332,8.419l0.009,-0.004l-0.001,0.001l-0.008,0.003ZM13.146,8.417l0.001,-0.001l-0.001,0.001l0,0ZM16.653,8.408l0.009,0.004l-0.008,-0.003l-0.001,-0.001ZM7.713,8.408l0.009,0.004l-0.008,-0.003l-0.001,-0.001ZM5.409,8.412l0.008,-0.003l-0.001,0l-0.007,0.003ZM14.349,8.412l0.008,-0.003l-0.001,0l-0.007,0.003ZM16.637,8.401l0.009,0.004l-0.008,-0.003l-0.001,-0.001ZM7.697,8.401l0.009,0.004l-0.008,-0.003l-0.001,-0.001ZM5.426,8.404l0.006,-0.002l0,0l-0.006,0.002ZM14.366,8.404l0.006,-0.002l0,0l-0.006,0.002ZM13.16,8.404l0.003,-0.002l-0.001,0l-0.002,0.002ZM8.906,8.401l0.001,0l0,0l-0.001,0ZM16.621,8.395l0.008,0.003l-0.007,-0.003l-0.001,0ZM7.681,8.395l0.008,0.003l-0.007,-0.003l-0.001,0ZM5.448,8.395l0.016,-0.007l0,0l-0.016,0.007ZM14.388,8.395l0.017,-0.007l-0.001,0l-0.016,0.007ZM7.665,8.388l0.006,0.003l-0.005,-0.003l-0.001,0ZM16.606,8.388l0.006,0.003l-0.006,-0.003l0,0ZM5.469,8.386l0.012,-0.005l-0.001,0.001l-0.011,0.004ZM14.409,8.386l0.012,-0.005l-0.001,0.001l-0.011,0.004ZM7.633,8.375l0.017,0.007l-0.017,-0.007l0,0ZM16.573,8.375l0.017,0.007l-0.017,-0.007l0,0ZM5.486,8.379l0.012,-0.004l-0.001,0l-0.011,0.004ZM14.426,8.379l0.012,-0.004l-0.001,0l-0.011,0.004ZM13.193,8.375l0.002,-0.002l-0.002,0.002l0,0ZM7.616,8.368l0.013,0.005l-0.012,-0.004l-0.001,-0.001ZM16.556,8.368l0.013,0.005l-0.012,-0.004l-0.001,-0.001ZM8.875,8.373l0,0l0,0l0,0ZM14.442,8.373l0.013,-0.005l-0.002,0.001l-0.011,0.004ZM5.502,8.373l0.013,-0.005l-0.002,0.001l-0.011,0.004ZM7.599,8.362l0.013,0.004l-0.011,-0.004l-0.002,0ZM16.539,8.362l0.013,0.004l-0.011,-0.004l-0.002,0ZM5.519,8.366l0.013,-0.005l-0.003,0.001l-0.01,0.004ZM14.459,8.366l0.013,-0.005l-0.003,0.001l-0.01,0.004ZM13.207,8.363l0.004,-0.003l-0.002,0.001l-0.002,0.002ZM7.582,8.355l0.013,0.005l-0.011,-0.004l-0.002,-0.001ZM16.522,8.355l0.013,0.005l-0.011,-0.004l-0.002,-0.001ZM14.475,8.36l0.014,-0.005l-0.003,0.001l-0.011,0.004ZM5.535,8.36l0.014,-0.005l-0.004,0.001l-0.01,0.004ZM8.858,8.359l0.001,0.001l0,-0.001l-0.001,0ZM7.565,8.349l0.014,0.005l-0.011,-0.004l-0.003,-0.001ZM16.505,8.349l0.014,0.005l-0.011,-0.004l-0.003,-0.001ZM5.551,8.354l0.015,-0.006l-0.004,0.002l-0.011,0.004ZM14.491,8.354l0.015,-0.006l-0.004,0.002l-0.011,0.004ZM7.548,8.342l0.014,0.006l-0.01,-0.004l-0.004,-0.002ZM16.488,8.342l0.014,0.006l-0.01,-0.004l-0.004,-0.002ZM5.568,8.348l0.015,-0.006l-0.005,0.002l-0.01,0.004ZM14.508,8.348l0.015,-0.006l-0.005,0.002l-0.01,0.004ZM13.225,8.347l0,0l0,0l0,0ZM7.531,8.336l0.015,0.006l-0.011,-0.004l-0.004,-0.002ZM16.471,8.336l0.015,0.006l-0.011,-0.004l-0.004,-0.002ZM5.584,8.341l0.016,-0.005l-0.005,0.002l-0.011,0.003ZM14.524,8.341l0.017,-0.005l-0.006,0.002l-0.011,0.003ZM7.514,8.33l0.015,0.006l-0.011,-0.004l-0.004,-0.002ZM16.454,8.33l0.015,0.006l-0.01,-0.004l-0.005,-0.002ZM5.601,8.335l0.017,-0.006l-0.007,0.003l-0.01,0.003ZM14.541,8.335l0.017,-0.006l-0.007,0.003l-0.01,0.003ZM13.24,8.335l0.004,-0.004l-0.002,0.003l-0.002,0.001ZM8.825,8.331l0.002,0.001l-0.001,0l-0.001,-0.001ZM7.496,8.324l0.016,0.006l-0.01,-0.004l-0.006,-0.002ZM16.436,8.324l0.016,0.006l-0.01,-0.004l-0.006,-0.002ZM5.618,8.329c0.097,-0.034 0.196,-0.062 0.297,-0.086c-0.101,0.024 -0.2,0.053 -0.297,0.086ZM14.558,8.329c0.097,-0.034 0.197,-0.062 0.297,-0.086c-0.101,0.024 -0.2,0.053 -0.297,0.086ZM7.496,8.324c-0.103,-0.035 -0.208,-0.065 -0.316,-0.089c0.107,0.024 0.212,0.053 0.316,0.089ZM16.436,8.324c-0.103,-0.035 -0.208,-0.065 -0.316,-0.089c0.107,0.024 0.212,0.053 0.316,0.089ZM13.255,8.322l0.004,-0.003l-0.001,0.001l-0.003,0.002ZM8.809,8.318l0.002,0.001l-0.001,-0.001l-0.001,0ZM8.792,8.304l0.001,0.001l0,-0.001l-0.001,0ZM13.289,8.295l0.004,-0.004l-0.002,0.002l-0.002,0.002ZM8.775,8.29l0.003,0.002l-0.001,-0.001l-0.002,-0.001ZM13.305,8.282l0.003,-0.003l-0.001,0.001l-0.002,0.002ZM8.76,8.277l0.002,0.002l-0.002,-0.001l0,-0.001ZM13.324,8.267l0,0l0,0l0,0ZM8.741,8.263l0.003,0.002l-0.001,0l-0.002,-0.002ZM13.339,8.255l0.003,-0.003l-0.002,0.002l-0.001,0.001ZM8.725,8.25l0.004,0.003l-0.002,-0.002l-0.002,-0.001ZM14.855,8.243l0.017,-0.003l-0.015,0.003l-0.002,0ZM5.915,8.243l0.017,-0.003l-0.015,0.003l-0.002,0ZM13.355,8.242l0.003,-0.002l-0.001,0.001l-0.002,0.001ZM14.873,8.239l0.016,-0.003l-0.015,0.003l-0.001,0ZM5.933,8.239l0.016,-0.003l-0.015,0.003l-0.001,0ZM7.163,8.232l0.017,0.003l-0.002,0l-0.015,-0.003ZM16.103,8.232l0.017,0.003l-0.002,0l-0.015,-0.003ZM5.951,8.235l0.014,-0.003l-0.013,0.003l-0.001,0ZM14.891,8.235l0.015,-0.003l-0.014,0.003l-0.001,0ZM7.146,8.228l0.016,0.004l-0.001,-0.001l-0.015,-0.003ZM16.086,8.228l0.016,0.004l-0.001,-0.001l-0.015,-0.003ZM5.969,8.231l0.014,-0.002l-0.014,0.002l0,0ZM14.909,8.231l0.014,-0.002l-0.014,0.002l0,0ZM7.129,8.225l0.015,0.003l-0.001,0l-0.014,-0.003ZM16.069,8.225l0.015,0.003l-0.001,0l-0.014,-0.003ZM14.927,8.228l0.017,-0.004l-0.017,0.004l0,0ZM5.987,8.228l0.017,-0.004l-0.017,0.004l0,0ZM8.69,8.224l0.004,0.003l-0.001,-0.002l-0.003,-0.001ZM7.112,8.221l0.014,0.003l0,0l-0.014,-0.003ZM16.052,8.221l0.014,0.003l0,0l-0.014,-0.003ZM6.021,8.221l0.007,-0.002l-0.006,0.002l-0.001,0ZM14.961,8.221l0.007,-0.002l-0.006,0.002l-0.001,0ZM7.09,8.217l0.018,0.004l0,0l-0.018,-0.004ZM16.031,8.217l0.017,0.004l0,0l-0.017,-0.004ZM6.038,8.218l0.009,-0.002l-0.008,0.001l-0.001,0.001ZM14.978,8.218l0.01,-0.002l-0.009,0.001l-0.001,0.001ZM13.39,8.216l0.002,-0.002l-0.001,0.001l-0.001,0.001ZM6.055,8.214l0.011,-0.001l-0.009,0.001l-0.002,0ZM14.996,8.214l0.01,-0.001l-0.009,0.001l-0.001,0ZM8.675,8.212l0.003,0.002l-0.002,-0.001l-0.001,-0.001ZM16.006,8.213l0.007,0.001l0,0l-0.007,-0.001ZM7.066,8.213l0.007,0.001l0,0l-0.007,-0.001ZM6.072,8.211l0.012,-0.001l-0.009,0.001l-0.003,0ZM15.012,8.211l0.012,-0.001l-0.009,0.001l-0.003,0ZM15.987,8.21l0.009,0.001l-0.001,0l-0.008,-0.001ZM7.047,8.21l0.009,0.001l-0.001,0l-0.008,-0.001ZM6.089,8.209l0.013,-0.002l-0.01,0.001l-0.003,0.001ZM15.029,8.209l0.013,-0.002l-0.009,0.001l-0.004,0.001ZM7.029,8.207l0.01,0.001l-0.002,0l-0.008,-0.001ZM15.969,8.207l0.01,0.001l-0.002,0l-0.008,-0.001ZM6.106,8.206l0.013,-0.002l-0.009,0.001l-0.004,0.001ZM15.046,8.206l0.013,-0.002l-0.009,0.001l-0.004,0.001ZM7.011,8.204l0.011,0.002l-0.002,-0.001l-0.009,-0.001ZM15.951,8.204l0.011,0.002l-0.002,-0.001l-0.009,-0.001ZM6.123,8.203l0.014,-0.002l-0.009,0.001l-0.005,0.001ZM15.063,8.203l0.014,-0.002l-0.009,0.001l-0.005,0.001ZM6.993,8.201l0.012,0.002l-0.003,-0.001l-0.009,-0.001ZM15.933,8.201l0.012,0.002l-0.003,-0.001l-0.009,-0.001ZM13.408,8.203l0,0l0,0l0,0ZM15.08,8.201l0.014,-0.002l-0.008,0.001l-0.006,0.001ZM6.14,8.201l0.014,-0.002l-0.008,0.001l-0.006,0.001ZM6.975,8.198l0.013,0.002l-0.004,0l-0.009,-0.002ZM15.915,8.198l0.013,0.002l-0.004,0l-0.009,-0.002ZM8.657,8.199l0.002,0.001l-0.001,0l-0.001,-0.001ZM6.156,8.198l0.016,-0.002l-0.008,0.001l-0.008,0.001ZM15.097,8.198l0.015,-0.002l-0.008,0.001l-0.007,0.001ZM6.957,8.196l0.014,0.002l-0.005,-0.001l-0.009,-0.001ZM15.897,8.196l0.014,0.002l-0.005,-0.001l-0.009,-0.001ZM6.173,8.196l0.016,-0.002l-0.007,0.001l-0.009,0.001ZM15.113,8.196l0.016,-0.002l-0.007,0.001l-0.009,0.001ZM6.94,8.194l0.014,0.002l-0.006,-0.001l-0.008,-0.001ZM15.88,8.194l0.014,0.002l-0.006,-0.001l-0.008,-0.001ZM6.189,8.194c0.068,-0.009 0.135,-0.015 0.203,-0.02c-0.068,0.005 -0.136,0.011 -0.203,0.02ZM15.13,8.194c0.067,-0.009 0.134,-0.015 0.202,-0.02c-0.068,0.005 -0.136,0.011 -0.202,0.02ZM6.922,8.191l0.016,0.002l-0.008,-0.001l-0.008,-0.001ZM15.862,8.191l0.016,0.002l-0.008,-0.001l-0.008,-0.001ZM6.905,8.189l0.016,0.002l-0.009,-0.001l-0.007,-0.001ZM15.845,8.189l0.016,0.002l-0.009,-0.001l-0.007,-0.001ZM6.904,8.189c-0.067,-0.008 -0.134,-0.013 -0.203,-0.016c0.068,0.003 0.136,0.008 0.203,0.016ZM15.845,8.189c-0.068,-0.008 -0.135,-0.013 -0.204,-0.016c0.068,0.003 0.136,0.008 0.204,0.016ZM8.64,8.186l0.003,0.002l-0.002,-0.001l-0.001,-0.001ZM13.442,8.178l0,-0.001l0,0.001l0,0ZM8.624,8.175l0,0l0,0l0,0ZM15.334,8.174l0.014,0l-0.009,0l-0.005,0ZM6.393,8.174l0.015,0l-0.009,0l-0.006,0ZM15.351,8.173l0.014,0l-0.008,0l-0.006,0ZM6.411,8.173l0.014,0l-0.008,0l-0.006,0ZM6.429,8.172l0.013,0l-0.006,0l-0.007,0ZM15.369,8.172l0.013,0l-0.006,0l-0.007,0ZM6.685,8.172l0.015,0l-0.006,0l-0.009,0ZM15.625,8.172l0.015,0l-0.006,0l-0.009,0ZM6.447,8.172l0.012,-0.001l-0.005,0l-0.007,0.001ZM15.387,8.172l0.012,-0.001l-0.005,0l-0.007,0.001ZM6.668,8.171l0.014,0.001l-0.006,-0.001l-0.008,0ZM15.608,8.171l0.014,0.001l-0.006,-0.001l-0.008,0ZM6.465,8.171l0.011,0l-0.004,0l-0.007,0ZM15.406,8.171l0.01,0l-0.003,0l-0.007,0ZM6.651,8.171l0.013,0l-0.007,0l-0.006,0ZM15.592,8.171l0.012,0l-0.007,0l-0.005,0ZM6.484,8.17l0.009,0l-0.002,0l-0.007,0ZM15.424,8.17l0.009,0l-0.002,0l-0.007,0ZM6.634,8.17l0.012,0l-0.007,0l-0.005,0ZM15.574,8.17l0.012,0l-0.007,0l-0.005,0ZM6.617,8.17l0.01,0l-0.006,0l-0.004,0ZM15.557,8.17l0.011,0l-0.007,0l-0.004,0ZM6.503,8.17l0.008,0l-0.002,0l-0.006,0ZM15.443,8.17l0.008,0l-0.002,0l-0.006,0ZM6.6,8.17l0.009,0l-0.007,0l-0.002,0ZM15.54,8.17l0.009,0l-0.007,0l-0.002,0ZM6.522,8.17l0.007,0l-0.001,0l-0.006,0ZM15.462,8.17l0.007,0l-0.001,0l-0.006,0ZM6.582,8.169l0.008,0l-0.007,0l-0.001,0ZM15.522,8.169l0.008,0l-0.006,0l-0.002,0ZM6.564,8.169l0.007,0l-0.006,0l-0.001,0ZM15.504,8.169l0.007,0l-0.006,0l-0.001,0ZM8.605,8.161l0.002,0.002l-0.001,-0.001l-0.001,-0.001ZM8.588,8.149l0.002,0.001l-0.001,0l-0.001,-0.001ZM8.554,8.125l0,0.001l0,-0.001l0,0ZM13.653,8.037l0,-0.001l0,0l0,0.001ZM13.689,8.014l0.001,0l-0.001,0l0,0ZM13.706,8.004l0.002,-0.001l-0.001,0l-0.001,0.001ZM13.743,7.983l0.003,-0.002l-0.002,0.001l-0.001,0.001ZM13.76,7.973l0.004,-0.002l-0.002,0.001l-0.002,0.001ZM8.3,7.967l0,0l0,0l0,0ZM13.798,7.952l0.004,-0.003l-0.003,0.002l-0.001,0.001ZM8.261,7.946l0.002,0.001l-0.001,-0.001l-0.001,0ZM13.815,7.942l0.005,-0.002l-0.002,0.001l-0.003,0.001ZM8.243,7.936l0.001,0l0,0l-0.001,0ZM8.224,7.925l0.001,0.001l0,0l-0.001,-0.001ZM13.851,7.923l0.005,-0.003l-0.004,0.002l-0.001,0.001ZM8.204,7.915l0.004,0.002l-0.002,-0.001l-0.002,-0.001ZM13.866,7.915l0.005,-0.003l-0.004,0.002l-0.001,0.001ZM13.881,7.907l0.005,-0.003l-0.004,0.002l-0.001,0.001ZM8.187,7.906l0.001,0l-0.001,0l0,0ZM4.947,7.904l0,0l0,0l0,0ZM13.896,7.899l0.005,-0.003l-0.003,0.002l-0.002,0.001ZM8.165,7.895l0.004,0.002l-0.001,-0.001l-0.003,-0.001ZM4.962,7.896l0.004,-0.002l-0.002,0.001l-0.002,0.001ZM13.911,7.892l0.005,-0.003l-0.003,0.001l-0.002,0.002ZM8.147,7.885l0.005,0.003l-0.003,-0.002l-0.002,-0.001ZM4.979,7.888l0.004,-0.003l-0.002,0.001l-0.002,0.002ZM13.926,7.884l0.005,-0.003l-0.002,0.001l-0.003,0.002ZM4.995,7.879l0.005,-0.002l-0.001,0l-0.004,0.002ZM8.13,7.877c0,0 0,0 0,0ZM13.942,7.876l0.004,-0.002l-0.001,0.001l-0.003,0.001ZM8.11,7.867l0.005,0.002l-0.001,0l-0.004,-0.002ZM5.016,7.869c0,0 0,0 0,0ZM13.958,7.868l0.003,-0.001l-0.001,0l-0.002,0.001ZM8.095,7.86l0.005,0.002l-0.001,0l-0.004,-0.002ZM5.031,7.862l0.003,-0.002l-0.003,0.002l0,0ZM17.035,7.86l0.001,0l0,0l-0.001,0ZM8.08,7.852l0.005,0.003l-0.002,-0.001l-0.003,-0.002ZM5.046,7.854l0.002,0l-0.002,0l0,0ZM17.016,7.851l0.004,0.002l-0.002,-0.001l-0.002,-0.001ZM8.065,7.845l0.005,0.003l-0.002,-0.001l-0.003,-0.002ZM5.062,7.847l0,0l0,0l0,0ZM16.999,7.842l0.005,0.003l-0.003,-0.002l-0.002,-0.001ZM8.05,7.838l0.005,0.003l-0.003,-0.002l-0.002,-0.001ZM16.982,7.835l0.005,0.002l-0.004,-0.002l-0.001,0ZM8.035,7.831l0.004,0.002l-0.003,-0.001l-0.001,-0.001ZM14.039,7.83l0.001,-0.001l-0.001,0.001l0,0ZM16.965,7.827c0,0 0,0 0,0ZM8.02,7.825l0.003,0.001l-0.002,-0.001l-0.001,0ZM14.054,7.823l0.002,-0.001l-0.001,0.001l-0.001,0ZM16.949,7.82l0.001,0l0,0l-0.001,0ZM8.005,7.818l0.002,0.001l-0.002,-0.001l0,0ZM14.07,7.816l0.002,-0.001l-0.001,0l-0.001,0.001ZM14.086,7.809l0.001,-0.001l0,0l-0.001,0.001ZM14.102,7.802l0.001,-0.001l-0.001,0l0,0.001ZM14.118,7.795l0.001,-0.001l-0.001,0l0,0.001ZM7.926,7.784l0,0l0,0l0,0ZM7.909,7.777l0.002,0l-0.001,0l-0.001,0ZM7.893,7.77l0.002,0.001l-0.001,0l-0.001,-0.001ZM7.878,7.764l0.001,0.001l-0.001,-0.001l0,0ZM14.199,7.761l0.001,0l-0.001,0l0,0ZM7.862,7.758l0.001,0l-0.001,0l0,0ZM14.214,7.755l0.003,-0.001l-0.002,0.001l-0.001,0ZM7.846,7.751l0,0.001l0,-0.001l0,0ZM14.23,7.749l0.004,-0.002l-0.003,0.001l-0.001,0.001ZM14.245,7.743l0.005,-0.002l-0.002,0.001l-0.003,0.001ZM14.261,7.737l0.005,-0.002l-0.002,0.001l-0.003,0.001ZM14.276,7.731l0.006,-0.002l-0.002,0.001l-0.004,0.001ZM14.292,7.725l0.006,-0.002l-0.002,0.001l-0.004,0.001ZM7.765,7.721l0.001,0l0,0l-0.001,0ZM14.308,7.72l0.006,-0.002l-0.001,0l-0.005,0.002ZM7.747,7.715l0.004,0.001l-0.001,-0.001l-0.003,0ZM14.325,7.714l0.005,-0.002l-0.001,0l-0.004,0.002ZM7.731,7.709l0.004,0.001l-0.002,0l-0.002,-0.001ZM14.346,7.706c0,0 0,0 0,0ZM7.715,7.703l0.004,0.002l-0.002,-0.001l-0.002,-0.001ZM14.361,7.701l0.005,-0.002l-0.004,0.002l-0.001,0ZM7.698,7.698l0.006,0.001l-0.003,-0.001l-0.003,0ZM14.377,7.696l0.006,-0.002l-0.005,0.001l-0.001,0.001ZM7.682,7.692l0.006,0.002l-0.003,-0.001l-0.003,-0.001ZM14.393,7.69l0.006,-0.002l-0.005,0.002l-0.001,0ZM7.667,7.687l0.005,0.002l-0.004,-0.002l-0.001,0ZM14.409,7.685l0.005,-0.002l-0.003,0.001l-0.002,0.001ZM7.651,7.682l0.005,0.002l-0.004,-0.002l-0.001,0ZM14.425,7.68l0.005,-0.002l-0.003,0.001l-0.002,0.001ZM7.635,7.677l0.005,0.001l-0.005,-0.001l0,0ZM14.441,7.675l0.005,-0.002l-0.003,0.001l-0.002,0.001ZM7.619,7.672c0,0 0,0 0,0ZM14.458,7.669l0.004,-0.001l-0.002,0.001l-0.002,0ZM7.599,7.665l0.004,0.002l0,0l-0.004,-0.002ZM14.474,7.664l0.004,-0.001l-0.002,0.001l-0.002,0ZM7.582,7.66l0.005,0.002l0,0l-0.005,-0.002ZM14.491,7.659l0.003,0l-0.001,0l-0.002,0ZM7.566,7.655l0.006,0.002l-0.002,0l-0.004,-0.002ZM14.508,7.654l0.002,0l-0.001,0l-0.001,0ZM7.55,7.651l0.006,0.001l-0.002,0l-0.004,-0.001ZM14.526,7.649l0,0l0,0l0,0ZM7.534,7.646l0.005,0.002l-0.001,-0.001l-0.004,-0.001ZM7.519,7.642l0.004,0.001l-0.002,0l-0.002,-0.001ZM7.503,7.637l0.004,0.002l-0.002,-0.001l-0.002,-0.001ZM7.487,7.633l0.003,0.001l-0.002,-0.001l-0.001,0ZM7.471,7.629l0.003,0.001l-0.002,-0.001l-0.001,0ZM7.455,7.625l0.001,0l-0.001,0l0,0ZM14.675,7.61l0.001,-0.001l-0.001,0.001l0,0ZM14.691,7.606l0.002,-0.001l-0.001,0.001l-0.001,0ZM14.708,7.602l0.002,-0.001l-0.001,0.001l-0.001,0ZM14.724,7.598l0.003,-0.001l-0.002,0.001l-0.001,0ZM14.74,7.595l0.004,-0.001l-0.002,0l-0.002,0.001ZM14.756,7.591l0.005,-0.001l-0.002,0l-0.003,0.001ZM14.773,7.587l0.004,-0.001l-0.001,0.001l-0.003,0ZM7.289,7.586l0.001,0l0,0l-0.001,0ZM14.789,7.584l0.005,-0.001l-0.001,0l-0.004,0.001ZM7.272,7.582l0.002,0.001l-0.001,-0.001l-0.001,0ZM14.805,7.581l0.006,-0.001l-0.002,0l-0.004,0.001ZM7.255,7.579l0.003,0l-0.002,0l-0.001,0ZM14.822,7.577l0.005,-0.001l-0.001,0.001l-0.004,0ZM7.238,7.576l0.003,0l-0.001,0l-0.002,0ZM14.838,7.574l0.006,-0.001l-0.001,0l-0.005,0.001ZM7.221,7.572l0.004,0.001l-0.002,0l-0.002,-0.001ZM14.856,7.571l0.004,-0.001l0,0l-0.004,0.001ZM7.205,7.569l0.004,0.001l-0.003,-0.001l-0.001,0ZM14.877,7.567c0,0 0,0 0,0ZM7.188,7.566l0.005,0.001l-0.003,-0.001l-0.002,0ZM14.893,7.564l0.005,-0.001l-0.004,0.001l-0.001,0ZM7.171,7.563l0.005,0.001l-0.003,-0.001l-0.002,0ZM14.91,7.561l0.005,-0.001l-0.005,0.001l0,0ZM7.155,7.56l0.005,0.001l-0.004,0l-0.001,-0.001ZM14.926,7.559l0.006,-0.001l-0.005,0l-0.001,0.001ZM7.138,7.558l0.006,0.001l-0.005,-0.001l-0.001,0ZM14.943,7.556l0.006,-0.001l-0.006,0.001l0,0ZM7.122,7.555l0.005,0.001l-0.005,-0.001l0,0ZM14.959,7.553l0.006,-0.001l-0.005,0.001l-0.001,0ZM7.105,7.552l0.005,0.001l-0.004,-0.001l-0.001,0ZM14.976,7.551l0.006,-0.001l-0.005,0.001l-0.001,0ZM6.037,7.551c0,0 0.017,-0.003 0.017,-0.003c-0.006,0.001 -0.011,0.002 -0.017,0.003l0,0ZM7.089,7.55c0,0 0,0 0,0ZM14.992,7.548l0.007,-0.001l-0.006,0.001l-0.001,0ZM7.066,7.547l0.007,0.001l-0.001,0l-0.006,-0.001ZM6.058,7.547l0.012,-0.001l0,0l-0.012,0.001ZM15.008,7.546l0.007,-0.001l-0.005,0.001l-0.002,0ZM7.048,7.544l0.008,0.001l0,0l-0.008,-0.001ZM6.075,7.545l0.012,-0.002l-0.001,0.001l-0.011,0.001ZM15.025,7.544l0.007,-0.001l-0.005,0l-0.002,0.001ZM15.981,7.543l0.001,0l0,0l-0.001,0ZM7.03,7.542l0.01,0.001l0,0l-0.01,-0.001ZM6.092,7.543l0.011,-0.002l-0.001,0l-0.01,0.002ZM15.041,7.541l0.008,-0.001l-0.006,0.001l-0.002,0ZM15.966,7.541c-0.006,-0.001 -0.011,-0.001 -0.017,-0.002c-0.005,-0.001 -0.011,-0.001 -0.017,-0.002l0.017,0.002l0.017,0.002ZM7.012,7.539l0.012,0.002l-0.001,0l-0.011,-0.002ZM6.108,7.541l0.012,-0.002l-0.001,0l-0.011,0.002ZM15.058,7.539l0.008,-0.001l-0.006,0.001l-0.002,0ZM6.993,7.537l0.015,0.002l-0.001,0l-0.014,-0.002ZM6.124,7.539l0.013,-0.002l-0.002,0l-0.011,0.002ZM15.074,7.537l0.01,-0.001l-0.007,0.001l-0.003,0ZM6.14,7.537l0.014,-0.002l-0.002,0l-0.012,0.002ZM15.09,7.535l0.011,-0.001l-0.008,0.001l-0.003,0ZM6.156,7.535l0.015,-0.002l-0.003,0l-0.012,0.002ZM15.106,7.534l0.012,-0.002l-0.008,0.001l-0.004,0.001ZM6.992,7.537c-0.272,-0.033 -0.548,-0.034 -0.82,-0.004c0.129,-0.014 0.26,-0.022 0.393,-0.022c0.145,0 0.287,0.009 0.427,0.026ZM15.122,7.532l0.014,-0.002l-0.009,0.001l-0.005,0.001ZM15.138,7.53l0.015,-0.001l-0.01,0.001l-0.005,0ZM15.931,7.537c-0.258,-0.031 -0.519,-0.034 -0.777,-0.009c0.116,-0.011 0.233,-0.017 0.351,-0.017c0.144,0 0.286,0.009 0.426,0.026Z" style="fill:#fff;"/></g></g></svg>