<?xml version="1.0" standalone="no"?><!DOCTYPE svg PUBLIC "-//W3C//DTD SVG 1.1//EN" "http://www.w3.org/Graphics/SVG/1.1/DTD/svg11.dtd"><svg width="100%" height="100%" viewBox="0 0 25 8" version="1.1" xmlns="http://www.w3.org/2000/svg" xmlns:xlink="http://www.w3.org/1999/xlink" xml:space="preserve" style="fill-rule:evenodd;clip-rule:evenodd;stroke-linejoin:round;stroke-miterlimit:1.41421;"><g><path d="M8.292,2.662c0.015,-0.026 0.03,-0.051 0.046,-0.076c0.07,-0.107 0.149,-0.207 0.238,-0.299c0.15,-0.156 0.326,-0.287 0.518,-0.388c0.083,-0.043 0.168,-0.08 0.256,-0.111c0.113,-0.04 0.229,-0.069 0.346,-0.088c0.188,-0.03 0.381,-0.034 0.57,-0.01c0.19,0.024 0.376,0.075 0.551,0.152c0.089,0.04 0.176,0.086 0.259,0.138c0.111,0.07 0.215,0.15 0.31,0.24c0.117,0.11 0.221,0.235 0.308,0.371c0.032,0.048 0.061,0.099 0.088,0.15c0.015,0.027 0.028,0.055 0.041,0.082l0.001,0.001l0.37,0l0.062,0.013c0.052,0.034 0.052,0.035 0.087,0.087l0.012,0.061l0,0.687l-0.012,0.062c-0.035,0.052 -0.035,0.052 -0.087,0.087l-0.062,0.012l-0.188,0c0,0.006 -0.001,0.012 -0.001,0.018c-0.002,0.017 -0.004,0.033 -0.006,0.05c-0.005,0.05 -0.013,0.1 -0.022,0.149c-0.027,0.137 -0.067,0.271 -0.122,0.399c-0.073,0.174 -0.172,0.338 -0.291,0.484c-0.139,0.171 -0.306,0.318 -0.493,0.434c-0.169,0.106 -0.353,0.186 -0.545,0.237c-0.208,0.054 -0.425,0.075 -0.639,0.062c-0.096,-0.007 -0.192,-0.02 -0.286,-0.04c-0.125,-0.026 -0.246,-0.064 -0.363,-0.114c-0.108,-0.045 -0.212,-0.1 -0.31,-0.164c-0.11,-0.072 -0.214,-0.155 -0.308,-0.247c-0.095,-0.092 -0.18,-0.193 -0.254,-0.302c-0.027,-0.039 -0.052,-0.078 -0.075,-0.118c-0.046,-0.076 -0.086,-0.155 -0.121,-0.236c-0.062,-0.144 -0.107,-0.296 -0.132,-0.451c-0.019,-0.112 -0.028,-0.225 -0.027,-0.339c-0.01,-0.001 -0.021,-0.002 -0.032,-0.003c-0.033,-0.004 -0.067,-0.007 -0.101,-0.009c-0.072,-0.005 -0.144,-0.008 -0.217,-0.008c-0.068,-0.001 -0.136,0.001 -0.204,0.005c-0.029,0.002 -0.059,0.004 -0.088,0.006l-0.003,0.001c0,0.004 0,0.009 0,0.014c0,0.008 0,0.016 0,0.024c0,0.025 0,0.05 -0.002,0.075c-0.002,0.05 -0.006,0.1 -0.012,0.149c-0.017,0.141 -0.049,0.28 -0.096,0.414c-0.043,0.119 -0.097,0.235 -0.161,0.344c-0.004,0.007 -0.008,0.013 -0.012,0.019l0,0.001c-0.082,0.138 -0.18,0.266 -0.292,0.38c-0.111,0.115 -0.237,0.216 -0.372,0.3c-0.12,0.075 -0.248,0.138 -0.381,0.185c-0.133,0.048 -0.27,0.081 -0.409,0.1c-0.05,0.007 -0.101,0.011 -0.151,0.014c-0.026,0.002 -0.051,0.003 -0.077,0.003c-0.013,0 -0.026,0.001 -0.039,0.001c-0.021,0 -0.042,-0.001 -0.064,-0.001c-0.055,-0.002 -0.11,-0.006 -0.165,-0.012c-0.156,-0.018 -0.31,-0.055 -0.457,-0.109c-0.118,-0.043 -0.231,-0.097 -0.339,-0.162c-0.113,-0.068 -0.22,-0.147 -0.317,-0.236c-0.116,-0.104 -0.219,-0.223 -0.307,-0.351c-0.089,-0.13 -0.162,-0.27 -0.218,-0.417c-0.067,-0.176 -0.109,-0.361 -0.124,-0.549l-0.182,0l-0.062,-0.012l-0.052,-0.035l-0.035,-0.052l-0.013,-0.062l0,-0.687l0.013,-0.061c0.034,-0.052 0.035,-0.053 0.087,-0.087l0.062,-0.013l0.365,0c0.004,-0.008 0.008,-0.017 0.012,-0.026c0.011,-0.022 0.022,-0.044 0.033,-0.065c0.032,-0.059 0.067,-0.117 0.104,-0.173c0.088,-0.131 0.192,-0.252 0.309,-0.359c0.168,-0.155 0.363,-0.281 0.574,-0.37c0.177,-0.074 0.364,-0.123 0.554,-0.144c0.193,-0.022 0.39,-0.015 0.582,0.02c0.191,0.035 0.377,0.098 0.55,0.187c0.193,0.099 0.369,0.229 0.521,0.384c0.089,0.092 0.17,0.193 0.241,0.301c0.017,0.025 0.033,0.051 0.048,0.077c0.015,0.025 0.03,0.05 0.044,0.075c0.011,-0.001 0.022,-0.003 0.034,-0.004c0.01,-0.001 0.02,-0.003 0.031,-0.004c0.058,-0.006 0.117,-0.011 0.176,-0.015c0.105,-0.007 0.211,-0.008 0.316,-0.006c0.125,0.003 0.25,0.012 0.375,0.027c0.06,0.007 0.121,0.016 0.181,0.026l0.002,-0.004c0.016,-0.03 0.033,-0.06 0.051,-0.089ZM6.139,2.589c-0.07,-0.047 -0.145,-0.088 -0.223,-0.121c-0.083,-0.036 -0.171,-0.062 -0.261,-0.079c-0.078,-0.015 -0.158,-0.023 -0.239,-0.024c-0.085,0 -0.171,0.008 -0.255,0.024c-0.085,0.016 -0.167,0.04 -0.247,0.073c-0.151,0.062 -0.289,0.152 -0.407,0.264c-0.114,0.109 -0.209,0.238 -0.277,0.38c-0.057,0.118 -0.096,0.245 -0.115,0.375c-0.021,0.143 -0.018,0.289 0.008,0.43c0.022,0.119 0.061,0.234 0.114,0.341c0.064,0.13 0.15,0.248 0.253,0.349c0.108,0.107 0.235,0.196 0.373,0.259c0.105,0.048 0.216,0.082 0.33,0.101c0.041,0.007 0.082,0.012 0.123,0.015c0.025,0.001 0.05,0.002 0.075,0.003c0.009,0 0.009,0 0.017,0c0.031,0 0.062,-0.001 0.092,-0.003c0.042,-0.003 0.083,-0.008 0.123,-0.015c0.109,-0.018 0.215,-0.05 0.315,-0.094c0.07,-0.032 0.138,-0.069 0.201,-0.112c0.061,-0.044 0.119,-0.093 0.171,-0.146c0.111,-0.113 0.203,-0.245 0.268,-0.389c0.03,-0.067 0.055,-0.136 0.073,-0.207c0.017,-0.062 0.028,-0.124 0.036,-0.188c0.017,-0.148 0.009,-0.3 -0.024,-0.446c-0.027,-0.122 -0.072,-0.24 -0.132,-0.349c-0.083,-0.15 -0.195,-0.283 -0.327,-0.391c-0.021,-0.018 -0.043,-0.034 -0.065,-0.05ZM9.236,4.754c0.058,0.039 0.119,0.073 0.182,0.103c0.106,0.05 0.22,0.085 0.336,0.104c0.041,0.007 0.082,0.012 0.123,0.015c0.023,0.001 0.045,0.002 0.067,0.003c0.009,0 0.017,0 0.026,0c0.03,0 0.061,-0.001 0.092,-0.003c0.041,-0.003 0.082,-0.008 0.123,-0.015c0.108,-0.018 0.214,-0.05 0.315,-0.094c0.148,-0.066 0.284,-0.161 0.399,-0.277c0.111,-0.112 0.201,-0.244 0.265,-0.388c0.054,-0.12 0.089,-0.249 0.104,-0.38c0.016,-0.143 0.009,-0.288 -0.022,-0.429c-0.023,-0.11 -0.062,-0.216 -0.113,-0.315c-0.07,-0.138 -0.165,-0.263 -0.279,-0.368c-0.109,-0.099 -0.234,-0.181 -0.369,-0.239c-0.086,-0.037 -0.176,-0.065 -0.268,-0.082c-0.076,-0.015 -0.153,-0.023 -0.231,-0.024c-0.08,-0.001 -0.16,0.006 -0.24,0.019c-0.09,0.016 -0.178,0.041 -0.263,0.075c-0.086,0.035 -0.169,0.079 -0.246,0.131c-0.048,0.035 -0.093,0.072 -0.136,0.112c-0.116,0.11 -0.213,0.241 -0.284,0.385c-0.06,0.123 -0.101,0.255 -0.121,0.39c-0.021,0.148 -0.018,0.3 0.01,0.447c0.024,0.123 0.065,0.243 0.122,0.355c0.067,0.13 0.156,0.25 0.262,0.352c0.046,0.044 0.095,0.085 0.146,0.123ZM8.555,4.786l-0.002,-0.003l0,0l0.001,0.002l0.001,0.001ZM8.553,2.562l0,-0.001l0.003,-0.003l-0.001,0.001l-0.002,0.003ZM6.822,2.558l-0.002,-0.003l-0.001,-0.001l0.002,0.003l0.001,0.001Z" style="fill:#fff;"/><path d="M0.113,0.542l0.868,0l0,4.102l2.071,0l0,0.771l-2.939,0l0,-4.873Z" style="fill:#fff;fill-rule:nonzero;"/><path d="M12.908,0.212l0.826,0l0,3.29l0.021,0l1.253,-1.391l1.06,0l-1.432,1.494l1.521,1.81l-1.094,0l-1.308,-1.693l-0.021,0l0,1.693l-0.826,0l0,-5.203Z" style="fill:#fff;fill-rule:nonzero;"/><path d="M19.564,5.415l-0.785,0l0,-0.53l-0.013,0c-0.074,0.165 -0.201,0.311 -0.382,0.437c-0.182,0.126 -0.396,0.189 -0.644,0.189c-0.216,0 -0.4,-0.037 -0.554,-0.113c-0.154,-0.076 -0.28,-0.176 -0.378,-0.3c-0.099,-0.123 -0.171,-0.266 -0.217,-0.426c-0.046,-0.161 -0.069,-0.326 -0.069,-0.496l0,-2.065l0.826,0l0,1.831c0,0.096 0.007,0.197 0.02,0.303c0.014,0.106 0.044,0.201 0.09,0.286c0.046,0.084 0.109,0.154 0.189,0.21c0.08,0.055 0.187,0.082 0.32,0.082c0.129,0 0.242,-0.026 0.341,-0.079c0.099,-0.053 0.179,-0.12 0.241,-0.203c0.062,-0.083 0.109,-0.178 0.141,-0.286c0.032,-0.108 0.048,-0.217 0.048,-0.327l0,-1.817l0.826,0l0,3.304Z" style="fill:#fff;fill-rule:nonzero;"/><path d="M21.347,2.111l0,0.461l0.02,0c0.042,-0.064 0.096,-0.129 0.162,-0.196c0.067,-0.066 0.148,-0.126 0.244,-0.179c0.097,-0.052 0.206,-0.096 0.327,-0.13c0.122,-0.035 0.258,-0.052 0.41,-0.052c0.234,0 0.449,0.045 0.647,0.134c0.197,0.09 0.367,0.212 0.509,0.368c0.142,0.156 0.252,0.34 0.33,0.551c0.078,0.211 0.117,0.438 0.117,0.681c0,0.244 -0.037,0.472 -0.113,0.685c-0.076,0.214 -0.184,0.399 -0.324,0.558c-0.14,0.158 -0.309,0.284 -0.509,0.378c-0.199,0.094 -0.425,0.141 -0.678,0.141c-0.234,0 -0.448,-0.048 -0.643,-0.144c-0.195,-0.097 -0.346,-0.227 -0.451,-0.392l-0.014,0l0,2.092l-0.826,0l0,-4.956l0.792,0ZM23.274,3.749c0,-0.128 -0.02,-0.255 -0.059,-0.382c-0.039,-0.126 -0.097,-0.239 -0.175,-0.34c-0.078,-0.101 -0.177,-0.183 -0.296,-0.245c-0.119,-0.062 -0.259,-0.093 -0.42,-0.093c-0.151,0 -0.287,0.033 -0.406,0.097c-0.119,0.064 -0.221,0.147 -0.306,0.248c-0.085,0.101 -0.149,0.215 -0.193,0.344c-0.044,0.128 -0.065,0.257 -0.065,0.385c0,0.129 0.021,0.256 0.065,0.382c0.044,0.126 0.108,0.24 0.193,0.341c0.085,0.101 0.187,0.182 0.306,0.244c0.119,0.062 0.255,0.093 0.406,0.093c0.161,0 0.301,-0.032 0.42,-0.096c0.119,-0.064 0.218,-0.147 0.296,-0.248c0.078,-0.101 0.136,-0.216 0.175,-0.344c0.039,-0.129 0.059,-0.257 0.059,-0.386Z" style="fill:#fff;fill-rule:nonzero;"/></g></svg>